{
  "title" : "",
  "description" : "",
  "author" : "",
  "width" : 1680.0,
  "height" : 1048.0,
  "version" : "0.5",
  "editRate" : 30,
  "authoringClientName" :  {
    "name" : "Camtasia Studio",
    "platform" : "Windows",
    "version" : "9.0"
  },
  "sourceBin" : [
    {
      "id" : 1,
      "src" : "C:\\Users\\Clokman\\OneDrive\\Documents\\Camtasia Studio\\Rec 10-28-17 17.trec",
      "rect" : [0, 0, 1680, 900],
      "lastMod" : "20171028T062937",
      "sourceTracks" : [
        {
          "range" : [0, 1288],
          "type" : 0,
          "editRate" : 30,
          "trackRect" : [0, 0, 1680, 900],
          "sampleRate" : 28,
          "bitDepth" : 0,
          "numChannels" : 0,
          "metaData" : "Rec 10-28-17 17.trec;"
        }
      ]
    },
    {
      "id" : 2,
      "src" : "C:\\Users\\Clokman\\OneDrive\\Documents\\Camtasia Studio\\Rec 10-28-17 18.trec",
      "rect" : [0, 0, 1680, 900],
      "lastMod" : "20171028T063256",
      "sourceTracks" : [
        {
          "range" : [0, 1415],
          "type" : 0,
          "editRate" : 30,
          "trackRect" : [0, 0, 1680, 900],
          "sampleRate" : 28,
          "bitDepth" : 0,
          "numChannels" : 0,
          "metaData" : "Rec 10-28-17 18.trec;"
        }
      ]
    },
    {
      "id" : 3,
      "src" : "C:\\Users\\Clokman\\OneDrive\\Documents\\Camtasia Studio\\Rec 10-28-17 21.trec",
      "rect" : [0, 0, 1680, 908],
      "lastMod" : "20171028T063646",
      "sourceTracks" : [
        {
          "range" : [0, 720],
          "type" : 0,
          "editRate" : 30,
          "trackRect" : [0, 0, 1680, 908],
          "sampleRate" : 28,
          "bitDepth" : 0,
          "numChannels" : 0,
          "metaData" : "Rec 10-28-17 21.trec;"
        }
      ]
    },
    {
      "id" : 4,
      "src" : "C:\\Users\\Clokman\\OneDrive\\Documents\\Camtasia Studio\\Rec 10-28-17 23.trec",
      "rect" : [0, 0, 1680, 908],
      "lastMod" : "20171028T064756",
      "sourceTracks" : [
        {
          "range" : [0, 3387],
          "type" : 0,
          "editRate" : 30,
          "trackRect" : [0, 0, 1680, 908],
          "sampleRate" : 28,
          "bitDepth" : 0,
          "numChannels" : 0,
          "metaData" : "Rec 10-28-17 23.trec;"
        }
      ]
    },
    {
      "id" : 5,
      "src" : "C:\\Users\\Clokman\\OneDrive\\Documents\\Camtasia Studio\\Rec 10-28-17 24.trec",
      "rect" : [0, 0, 1680, 908],
      "lastMod" : "20171028T070145",
      "sourceTracks" : [
        {
          "range" : [0, 1004],
          "type" : 0,
          "editRate" : 30,
          "trackRect" : [0, 0, 1680, 908],
          "sampleRate" : 28,
          "bitDepth" : 0,
          "numChannels" : 0,
          "metaData" : "Rec 10-28-17 24.trec;"
        }
      ]
    },
    {
      "id" : 6,
      "src" : "C:\\Users\\Clokman\\OneDrive\\Documents\\Camtasia Studio\\Rec 10-28-17 25.trec",
      "rect" : [0, 0, 1680, 1008],
      "lastMod" : "20171028T073459",
      "sourceTracks" : [
        {
          "range" : [0, 2542],
          "type" : 0,
          "editRate" : 30,
          "trackRect" : [0, 0, 1680, 1008],
          "sampleRate" : 28,
          "bitDepth" : 0,
          "numChannels" : 0,
          "metaData" : "Rec 10-28-17 25.trec;"
        }
      ]
    },
    {
      "id" : 7,
      "src" : "C:\\Users\\Clokman\\OneDrive\\Documents\\Camtasia Studio\\Rec 10-28-17 26.trec",
      "rect" : [0, 0, 1680, 1008],
      "lastMod" : "20171028T073840",
      "sourceTracks" : [
        {
          "range" : [0, 2085],
          "type" : 0,
          "editRate" : 30,
          "trackRect" : [0, 0, 1680, 1008],
          "sampleRate" : 29,
          "bitDepth" : 0,
          "numChannels" : 0,
          "metaData" : "Rec 10-28-17 26.trec;"
        }
      ]
    },
    {
      "id" : 8,
      "src" : "C:\\Users\\Clokman\\OneDrive\\Documents\\Camtasia Studio\\Rec 10-28-17 27.trec",
      "rect" : [0, 0, 1680, 1008],
      "lastMod" : "20171028T074326",
      "sourceTracks" : [
        {
          "range" : [0, 721],
          "type" : 0,
          "editRate" : 30,
          "trackRect" : [0, 0, 1680, 1008],
          "sampleRate" : 28,
          "bitDepth" : 0,
          "numChannels" : 0,
          "metaData" : "Rec 10-28-17 27.trec;"
        }
      ]
    },
    {
      "id" : 9,
      "src" : "C:\\Users\\Clokman\\OneDrive\\Documents\\Camtasia Studio\\Rec 10-28-17 28.trec",
      "rect" : [0, 0, 1680, 1008],
      "lastMod" : "20171028T074545",
      "sourceTracks" : [
        {
          "range" : [0, 382],
          "type" : 0,
          "editRate" : 30,
          "trackRect" : [0, 0, 1680, 1008],
          "sampleRate" : 29,
          "bitDepth" : 0,
          "numChannels" : 0,
          "metaData" : "Rec 10-28-17 28.trec;"
        }
      ]
    },
    {
      "id" : 10,
      "src" : "C:\\Users\\Clokman\\OneDrive\\Documents\\Camtasia Studio\\Rec 10-28-17 30.trec",
      "rect" : [0, 0, 1680, 1008],
      "lastMod" : "20171028T075305",
      "sourceTracks" : [
        {
          "range" : [0, 3159],
          "type" : 0,
          "editRate" : 30,
          "trackRect" : [0, 0, 1680, 1008],
          "sampleRate" : 27,
          "bitDepth" : 0,
          "numChannels" : 0,
          "metaData" : "Rec 10-28-17 30.trec;"
        }
      ]
    },
    {
      "id" : 11,
      "src" : "C:\\Users\\Clokman\\OneDrive\\Documents\\Camtasia Studio\\Rec 10-28-17 31.trec",
      "rect" : [0, 0, 1680, 1008],
      "lastMod" : "20171028T080003",
      "sourceTracks" : [
        {
          "range" : [0, 426],
          "type" : 0,
          "editRate" : 30,
          "trackRect" : [0, 0, 1680, 1008],
          "sampleRate" : 29,
          "bitDepth" : 0,
          "numChannels" : 0,
          "metaData" : "Rec 10-28-17 31.trec;"
        }
      ]
    },
    {
      "id" : 12,
      "src" : "C:\\Users\\Clokman\\Desktop\\28-10-2017 12-05.png",
      "rect" : [0, 0, 500, 328],
      "lastMod" : "20171028T100600",
      "sourceTracks" : [
        {
          "range" : [0, 1],
          "type" : 1,
          "editRate" : 10000000,
          "trackRect" : [0, 0, 500, 328],
          "sampleRate" : 0,
          "bitDepth" : 32,
          "numChannels" : 0,
          "metaData" : ""
        }
      ]
    },
    {
      "id" : 13,
      "src" : "C:\\Users\\Clokman\\OneDrive\\Documents\\Camtasia Studio\\Rec 10-28-17 33.trec",
      "rect" : [0, 0, 1676, 908],
      "lastMod" : "20171028T110835",
      "sourceTracks" : [
        {
          "range" : [0, 243],
          "type" : 0,
          "editRate" : 30,
          "trackRect" : [0, 0, 1676, 908],
          "sampleRate" : 29,
          "bitDepth" : 0,
          "numChannels" : 0,
          "metaData" : "Rec 10-28-17 33.trec;"
        }
      ]
    },
    {
      "id" : 14,
      "src" : "C:\\Users\\Clokman\\OneDrive\\Documents\\Camtasia Studio\\Rec 10-28-17 34.trec",
      "rect" : [0, 0, 1676, 908],
      "lastMod" : "20171028T111327",
      "sourceTracks" : [
        {
          "range" : [0, 2365],
          "type" : 0,
          "editRate" : 30,
          "trackRect" : [0, 0, 1676, 908],
          "sampleRate" : 28,
          "bitDepth" : 0,
          "numChannels" : 0,
          "metaData" : "Rec 10-28-17 34.trec;"
        }
      ]
    }
  ],
  "timeline" : {
    "id" : 15,
    "sceneTrack" : {
      "scenes" : [
        {
          "duration" : 190.866666666667,
          "title" : "",
          "type" : "",
          "csml" : {
            "tracks" : [
              {
                "trackIndex" : 0,
                "medias" : [
                ]
              },
              {
                "trackIndex" : 1,
                "medias" : [
                  {
                    "id" : 16,
                    "_type" : "Callout",
                    "def" : {
                      "kind" : "remix",
                      "shape" : "shape-rectangle",
                      "style" : "basic",
                      "fill-color-blue" : 1.0,
                      "fill-color-green" : 1.0,
                      "fill-color-opacity" : 1.0,
                      "fill-color-red" : 1.0,
                      "height" : 1425.67212004896,
                      "stroke-color-blue" : 1.0,
                      "stroke-color-green" : 1.0,
                      "stroke-color-opacity" : 1.0,
                      "stroke-color-red" : 1.0,
                      "stroke-width" : 0.0,
                      "width" : 2285.42858150061,
                      "fill-style" : "solid",
                      "horizontal-alignment" : "center",
                      "stroke-style" : "solid",
                      "vertical-alignment" : "center",
                      "textAttributes" : {
                        "type" : "textAttributeList",
                        "keyframes" : [
                          {
                            "time" : 0,
                            "value" : null,
                            "duration" : 0
                          }
                        ]
                      }
                    },
                    "attributes" : {
                      "autoRotateText" : true
                    },
                    "parameters" : {
                      "translation0" : 3.37271153578733e-05,
                      "translation1" : -6.73532927518372e-06,
                      "scale0" : 0.735091890625,
                      "scale1" : 0.735091890625
                    },
                    "effects" : [
                        {
                          "effectName" : "DropShadow",
                          "parameters" : {
                            "angle" : 5.49778714378214,
                            "blur" : 10.0,
                            "color-alpha" : 1.0,
                            "color-blue" : 0.1216,
                            "color-green" : 0.1216,
                            "color-red" : 0.1216,
                            "enabled" : 1,
                            "offset" : 10.0,
                            "opacity" : 0.4
                          }
                        }
                    ],
                    "start" : 0,
                    "duration" : 78,
                    "mediaStart" : 14,
                    "mediaDuration" : 78,
                    "scalar" : 1,
                    "metadata" : {
                      "WinSubProjectDisplayName" : "",
                      "clipSpeedAttribute" : false,
                      "default-scale0" : 1.0,
                      "default-scale1" : 1.0,
                      "default-translation0" : 0.0,
                      "default-translation1" : 0.0
                    },
                    "animationTracks" : {

                    }
                  },
                  {
                    "id" : 17,
                    "_type" : "Callout",
                    "def" : {
                      "kind" : "remix",
                      "shape" : "shape-rectangle",
                      "style" : "basic",
                      "fill-color-blue" : 1.0,
                      "fill-color-green" : 1.0,
                      "fill-color-opacity" : 1.0,
                      "fill-color-red" : 1.0,
                      "height" : 1425.67212004896,
                      "stroke-color-blue" : 1.0,
                      "stroke-color-green" : 1.0,
                      "stroke-color-opacity" : 1.0,
                      "stroke-color-red" : 1.0,
                      "stroke-width" : 0.0,
                      "width" : 2285.42858150061,
                      "fill-style" : "solid",
                      "horizontal-alignment" : "center",
                      "stroke-style" : "solid",
                      "vertical-alignment" : "center",
                      "textAttributes" : {
                        "type" : "textAttributeList",
                        "keyframes" : [
                          {
                            "time" : 0,
                            "value" : null,
                            "duration" : 0
                          }
                        ]
                      }
                    },
                    "attributes" : {
                      "autoRotateText" : true
                    },
                    "parameters" : {
                      "translation0" : 3.37271153578733e-05,
                      "translation1" : -6.73532927518372e-06,
                      "scale0" : 0.735091890625,
                      "scale1" : 0.735091890625
                    },
                    "effects" : [
                        {
                          "effectName" : "DropShadow",
                          "parameters" : {
                            "angle" : 5.49778714378214,
                            "blur" : 10.0,
                            "color-alpha" : 1.0,
                            "color-blue" : 0.1216,
                            "color-green" : 0.1216,
                            "color-red" : 0.1216,
                            "enabled" : 1,
                            "offset" : 10.0,
                            "opacity" : 0.4
                          }
                        }
                    ],
                    "start" : 5589,
                    "duration" : 137,
                    "mediaStart" : -145,
                    "mediaDuration" : 137,
                    "scalar" : 1,
                    "metadata" : {
                      "WinSubProjectDisplayName" : "",
                      "clipSpeedAttribute" : false,
                      "default-scale0" : 1.0,
                      "default-scale1" : 1.0,
                      "default-translation0" : 0.0,
                      "default-translation1" : 0.0
                    },
                    "animationTracks" : {

                    }
                  }
                ],
                "transitions" : [
                  {
                    "name" : "Glow",
                    "duration" : 16,
                    "useAudioPreRoll" : true,
                    "useVisualPreRoll" : true,
                    "rightMedia" : 17
                  },
                  {
                    "name" : "Glow",
                    "duration" : 30,
                    "useAudioPreRoll" : true,
                    "useVisualPreRoll" : true,
                    "leftMedia" : 17
                  }
                ]
              },
              {
                "trackIndex" : 2,
                "medias" : [
                  {
                    "id" : 18,
                    "_type" : "IMFile",
                    "src" : 12,
                    "trackNumber" : 0,
                    "trimStartSum" : 142,
                    "attributes" : {
                      "ident" : "28-10-2017 12-05"
                    },
                    "parameters" : {
                      "translation0" : 1.93718714640307,
                      "translation1" : 270.384657088078,
                      "scale0" : 0.626074373377477,
                      "scale1" : 0.662311307174568
                    },
                    "effects" : [

                    ],
                    "start" : 0,
                    "duration" : 78,
                    "mediaStart" : 0,
                    "mediaDuration" : 1,
                    "scalar" : 1,
                    "metadata" : {
                      "WinSubProjectDisplayName" : "",
                      "clipSpeedAttribute" : false,
                      "default-scale0" : 1.0,
                      "default-scale1" : 1.0,
                      "default-translation0" : 0.0,
                      "default-translation1" : 0.0
                    },
                    "animationTracks" : {

                    }
                  },
                  {
                    "id" : 19,
                    "_type" : "ScreenVMFile",
                    "src" : 4,
                    "trackNumber" : 0,
                    "attributes" : {
                      "ident" : "Rec 10-28-17 23"
                    },
                    "parameters" : {
                      "cursorScale" : {
                        "type" : "double",
                        "defaultValue" : 1.0,
                        "interp" : "linr"
                      },
                      "cursorOpacity" : {
                        "type" : "double",
                        "defaultValue" : 1.0,
                        "interp" : "linr"
                      }
                    },
                    "effects" : [
                        {
                          "effectName" : "LeftClickWarp",
                          "parameters" : {
                            "clickDuration" : 1.25,
                            "postClickPercent" : 100.0,
                            "radius" : 75.0,
                            "scale" : 0.5
                          }
                        },
                        {
                          "effectName" : "LeftClickSound",
                          "parameters" : {
                            "filename" : "mouse_click_single.wav",
                            "volume" : 1.0
                          }
                        }
                    ],
                    "start" : 1931,
                    "duration" : 191,
                    "mediaStart" : 0,
                    "mediaDuration" : 191,
                    "scalar" : 1,
                    "metadata" : {
                      "AutoAppliedSmartFocus" : "False",
                      "WinSubProjectDisplayName" : "",
                      "clipSpeedAttribute" : false
                    },
                    "animationTracks" : {

                    }
                  },
                  {
                    "id" : 20,
                    "_type" : "ScreenVMFile",
                    "src" : 4,
                    "trackNumber" : 0,
                    "attributes" : {
                      "ident" : "Rec 10-28-17 23"
                    },
                    "parameters" : {
                      "cursorScale" : {
                        "type" : "double",
                        "defaultValue" : 1.0,
                        "interp" : "linr"
                      },
                      "cursorOpacity" : {
                        "type" : "double",
                        "defaultValue" : 1.0,
                        "interp" : "linr"
                      }
                    },
                    "effects" : [
                        {
                          "effectName" : "LeftClickWarp",
                          "parameters" : {
                            "clickDuration" : 1.25,
                            "postClickPercent" : 100.0,
                            "radius" : 75.0,
                            "scale" : 0.5
                          }
                        },
                        {
                          "effectName" : "LeftClickSound",
                          "parameters" : {
                            "filename" : "mouse_click_single.wav",
                            "volume" : 1.0
                          }
                        }
                    ],
                    "start" : 2122,
                    "duration" : 211,
                    "mediaStart" : 492,
                    "mediaDuration" : 211,
                    "scalar" : 1,
                    "metadata" : {
                      "AutoAppliedSmartFocus" : "False",
                      "WinSubProjectDisplayName" : "",
                      "clipSpeedAttribute" : false
                    },
                    "animationTracks" : {

                    }
                  },
                  {
                    "id" : 21,
                    "_type" : "ScreenVMFile",
                    "src" : 4,
                    "trackNumber" : 0,
                    "attributes" : {
                      "ident" : "Rec 10-28-17 23"
                    },
                    "parameters" : {
                      "cursorScale" : {
                        "type" : "double",
                        "defaultValue" : 1.0,
                        "interp" : "linr"
                      },
                      "cursorOpacity" : {
                        "type" : "double",
                        "defaultValue" : 1.0,
                        "interp" : "linr"
                      }
                    },
                    "effects" : [
                        {
                          "effectName" : "LeftClickWarp",
                          "parameters" : {
                            "clickDuration" : {
                              "type" : "double",
                              "defaultValue" : 1.25,
                              "interp" : "linr",
                              "uiHints" : {
                                "userInterfaceType" : 0,
                                "unitType" : 0
                              }
                            },
                            "postClickPercent" : 100.0,
                            "radius" : {
                              "type" : "double",
                              "defaultValue" : 75.0,
                              "interp" : "linr",
                              "uiHints" : {
                                "userInterfaceType" : 0,
                                "unitType" : 0
                              }
                            },
                            "scale" : {
                              "type" : "double",
                              "defaultValue" : 0.5,
                              "interp" : "linr",
                              "uiHints" : {
                                "userInterfaceType" : 0,
                                "unitType" : 0
                              }
                            }
                          }
                        },
                        {
                          "effectName" : "LeftClickSound",
                          "parameters" : {
                            "filename" : "mouse_click_single.wav",
                            "volume" : 1.0
                          }
                        }
                    ],
                    "start" : 2333,
                    "duration" : 501,
                    "mediaStart" : 867,
                    "mediaDuration" : 501,
                    "scalar" : 1,
                    "metadata" : {
                      "AutoAppliedSmartFocus" : "False",
                      "WinSubProjectDisplayName" : "",
                      "clipSpeedAttribute" : false
                    },
                    "animationTracks" : {

                    }
                  },
                  {
                    "id" : 22,
                    "_type" : "ScreenVMFile",
                    "src" : 4,
                    "trackNumber" : 0,
                    "attributes" : {
                      "ident" : "Rec 10-28-17 23"
                    },
                    "parameters" : {
                      "cursorScale" : {
                        "type" : "double",
                        "defaultValue" : 1.0,
                        "interp" : "linr"
                      },
                      "cursorOpacity" : {
                        "type" : "double",
                        "defaultValue" : 1.0,
                        "interp" : "linr"
                      }
                    },
                    "effects" : [
                        {
                          "effectName" : "LeftClickWarp",
                          "parameters" : {
                            "clickDuration" : 1.25,
                            "postClickPercent" : 100.0,
                            "radius" : 75.0,
                            "scale" : 0.5
                          }
                        },
                        {
                          "effectName" : "LeftClickSound",
                          "parameters" : {
                            "filename" : "mouse_click_single.wav",
                            "volume" : 1.0
                          }
                        }
                    ],
                    "start" : 2834,
                    "duration" : 321,
                    "mediaStart" : 1431,
                    "mediaDuration" : 321,
                    "scalar" : 1,
                    "metadata" : {
                      "AutoAppliedSmartFocus" : "False",
                      "WinSubProjectDisplayName" : "",
                      "clipSpeedAttribute" : false
                    },
                    "animationTracks" : {

                    }
                  },
                  {
                    "id" : 23,
                    "_type" : "ScreenVMFile",
                    "src" : 4,
                    "trackNumber" : 0,
                    "attributes" : {
                      "ident" : "Rec 10-28-17 23"
                    },
                    "parameters" : {
                      "cursorScale" : {
                        "type" : "double",
                        "defaultValue" : 1.0,
                        "interp" : "linr"
                      },
                      "cursorOpacity" : {
                        "type" : "double",
                        "defaultValue" : 1.0,
                        "interp" : "linr"
                      }
                    },
                    "effects" : [
                        {
                          "effectName" : "LeftClickWarp",
                          "parameters" : {
                            "clickDuration" : 1.25,
                            "postClickPercent" : 100.0,
                            "radius" : 75.0,
                            "scale" : 0.5
                          }
                        },
                        {
                          "effectName" : "LeftClickSound",
                          "parameters" : {
                            "filename" : "mouse_click_single.wav",
                            "volume" : 1.0
                          }
                        }
                    ],
                    "start" : 3155,
                    "duration" : 174,
                    "mediaStart" : 1838,
                    "mediaDuration" : 174,
                    "scalar" : 1,
                    "metadata" : {
                      "AutoAppliedSmartFocus" : "False",
                      "WinSubProjectDisplayName" : "",
                      "clipSpeedAttribute" : false
                    },
                    "animationTracks" : {

                    }
                  },
                  {
                    "id" : 24,
                    "_type" : "ScreenVMFile",
                    "src" : 4,
                    "trackNumber" : 0,
                    "attributes" : {
                      "ident" : "Rec 10-28-17 23"
                    },
                    "parameters" : {
                      "cursorScale" : {
                        "type" : "double",
                        "defaultValue" : 1.0,
                        "interp" : "linr"
                      },
                      "cursorOpacity" : {
                        "type" : "double",
                        "defaultValue" : 1.0,
                        "interp" : "linr"
                      }
                    },
                    "effects" : [
                        {
                          "effectName" : "LeftClickWarp",
                          "parameters" : {
                            "clickDuration" : 1.25,
                            "postClickPercent" : 100.0,
                            "radius" : 75.0,
                            "scale" : 0.5
                          }
                        },
                        {
                          "effectName" : "LeftClickSound",
                          "parameters" : {
                            "filename" : "mouse_click_single.wav",
                            "volume" : 1.0
                          }
                        }
                    ],
                    "start" : 3329,
                    "duration" : 105,
                    "mediaStart" : 2055,
                    "mediaDuration" : 105,
                    "scalar" : 1,
                    "metadata" : {
                      "AutoAppliedSmartFocus" : "False",
                      "WinSubProjectDisplayName" : "",
                      "clipSpeedAttribute" : false
                    },
                    "animationTracks" : {

                    }
                  },
                  {
                    "id" : 25,
                    "_type" : "ScreenVMFile",
                    "src" : 4,
                    "trackNumber" : 0,
                    "attributes" : {
                      "ident" : "Rec 10-28-17 23"
                    },
                    "parameters" : {
                      "cursorScale" : {
                        "type" : "double",
                        "defaultValue" : 1.0,
                        "interp" : "linr"
                      },
                      "cursorOpacity" : {
                        "type" : "double",
                        "defaultValue" : 1.0,
                        "interp" : "linr"
                      }
                    },
                    "effects" : [
                        {
                          "effectName" : "LeftClickWarp",
                          "parameters" : {
                            "clickDuration" : 1.25,
                            "postClickPercent" : 100.0,
                            "radius" : 75.0,
                            "scale" : 0.5
                          }
                        },
                        {
                          "effectName" : "LeftClickSound",
                          "parameters" : {
                            "filename" : "mouse_click_single.wav",
                            "volume" : 1.0
                          }
                        }
                    ],
                    "start" : 3434,
                    "duration" : 508,
                    "mediaStart" : 2307,
                    "mediaDuration" : 508,
                    "scalar" : 1,
                    "metadata" : {
                      "AutoAppliedSmartFocus" : "False",
                      "WinSubProjectDisplayName" : "",
                      "clipSpeedAttribute" : false
                    },
                    "animationTracks" : {

                    }
                  },
                  {
                    "id" : 26,
                    "_type" : "ScreenVMFile",
                    "src" : 4,
                    "trackNumber" : 0,
                    "attributes" : {
                      "ident" : "Rec 10-28-17 23"
                    },
                    "parameters" : {
                      "cursorScale" : {
                        "type" : "double",
                        "defaultValue" : 1.0,
                        "interp" : "linr"
                      },
                      "cursorOpacity" : {
                        "type" : "double",
                        "defaultValue" : 1.0,
                        "interp" : "linr"
                      }
                    },
                    "effects" : [
                        {
                          "effectName" : "LeftClickWarp",
                          "parameters" : {
                            "clickDuration" : 1.25,
                            "postClickPercent" : 100.0,
                            "radius" : 75.0,
                            "scale" : 0.5
                          }
                        },
                        {
                          "effectName" : "LeftClickSound",
                          "parameters" : {
                            "filename" : "mouse_click_single.wav",
                            "volume" : 1.0
                          }
                        }
                    ],
                    "start" : 3942,
                    "duration" : 149,
                    "mediaStart" : 3003,
                    "mediaDuration" : 149,
                    "scalar" : 1,
                    "metadata" : {
                      "AutoAppliedSmartFocus" : "False",
                      "WinSubProjectDisplayName" : "",
                      "clipSpeedAttribute" : false
                    },
                    "animationTracks" : {

                    }
                  },
                  {
                    "id" : 27,
                    "_type" : "IMFile",
                    "src" : 12,
                    "trackNumber" : 0,
                    "trimStartSum" : 0,
                    "attributes" : {
                      "ident" : "28-10-2017 12-05"
                    },
                    "parameters" : {
                      "translation0" : -2.93585600275037e-10,
                      "translation1" : 33.1620455945323
                    },
                    "effects" : [

                    ],
                    "start" : 5589,
                    "duration" : 110,
                    "mediaStart" : 0,
                    "mediaDuration" : 1,
                    "scalar" : 1,
                    "metadata" : {
                      "WinSubProjectDisplayName" : "",
                      "clipSpeedAttribute" : false,
                      "default-scale0" : 1.0,
                      "default-scale1" : 1.0,
                      "default-translation0" : 0.0,
                      "default-translation1" : 0.0
                    },
                    "animationTracks" : {

                    }
                  }
                ],
                "transitions" : [
                  {
                    "name" : "Glow",
                    "duration" : 1,
                    "useAudioPreRoll" : true,
                    "useVisualPreRoll" : true,
                    "leftMedia" : 19,
                    "rightMedia" : 20
                  },
                  {
                    "name" : "Glow",
                    "duration" : 16,
                    "useAudioPreRoll" : true,
                    "useVisualPreRoll" : true,
                    "rightMedia" : 27
                  },
                  {
                    "name" : "Glow",
                    "duration" : 30,
                    "useAudioPreRoll" : true,
                    "useVisualPreRoll" : true,
                    "leftMedia" : 27
                  }
                ]
              },
              {
                "trackIndex" : 3,
                "medias" : [
                  {
                    "id" : 28,
                    "_type" : "Callout",
                    "def" : {
                      "kind" : "remix",
                      "shape" : "text",
                      "style" : "basic",
                      "height" : 205.462034842788,
                      "width" : 1200.07607261818,
                      "word-wrap" : 1.0,
                      "horizontal-alignment" : "center",
                      "text" : "Modelling Scientific Publication Landscape \rwith Linked Data Reactor\r\r— SHORT, INTERFACE-ONLY VERSION —",
                      "vertical-alignment" : "center",
                      "font" : {
                        "color-blue" : 1.0,
                        "color-green" : 1.0,
                        "color-red" : 1.0,
                        "size" : 96.0,
                        "tracking" : 0.0,
                        "name" : "Montserrat",
                        "weight" : "Regular"
                      },
                      "textAttributes" : {
                        "type" : "textAttributeList",
                        "keyframes" : [
                          {
                            "time" : 0,
                            "value" : [{"name":"underline","rangeEnd":107,"rangeStart":0,"value":0,"valueType":"int"},{"name":"fgColor","rangeEnd":107,"rangeStart":0,"value":"(68,68,68,255)","valueType":"color"},{"name":"fontWeight","rangeEnd":107,"rangeStart":0,"value":700,"valueType":"int"},{"name":"fontSize","rangeEnd":107,"rangeStart":0,"value":96,"valueType":"double"},{"name":"fontItalic","rangeEnd":107,"rangeStart":0,"value":0,"valueType":"int"},{"name":"fontName","rangeEnd":107,"rangeStart":0,"value":"Montserrat","valueType":"string"},{"name":"strikethrough","rangeEnd":107,"rangeStart":0,"value":0,"valueType":"int"}],
                            "duration" : 0
                          }
                        ]
                      }
                    },
                    "attributes" : {
                      "autoRotateText" : true
                    },
                    "parameters" : {
                      "translation0" : 2.3991508372783,
                      "translation1" : 0.268975843306167
                    },
                    "effects" : [

                    ],
                    "start" : 0,
                    "duration" : 78,
                    "mediaStart" : 14,
                    "mediaDuration" : 78,
                    "scalar" : 1,
                    "metadata" : {
                      "WinSubProjectDisplayName" : "",
                      "clipSpeedAttribute" : false,
                      "default-HAlign" : "center",
                      "default-VAlign" : "center",
                      "default-rotation0" : 0.0,
                      "default-rotation1" : 0.0,
                      "default-rotation2" : 0.0,
                      "default-text-attributes" : "[{\"name\":\"fontName\",\"rangeEnd\":68,\"rangeStart\":0,\"value\":\"Montserrat\",\"valueType\":\"string\"},{\"name\":\"strikethrough\",\"rangeEnd\":68,\"rangeStart\":0,\"value\":0,\"valueType\":\"int\"},{\"name\":\"fontWeight\",\"rangeEnd\":68,\"rangeStart\":0,\"value\":700,\"valueType\":\"int\"},{\"name\":\"fontItalic\",\"rangeEnd\":68,\"rangeStart\":0,\"value\":0,\"valueType\":\"int\"},{\"name\":\"underline\",\"rangeEnd\":68,\"rangeStart\":0,\"value\":0,\"valueType\":\"int\"},{\"name\":\"fontSize\",\"rangeEnd\":68,\"rangeStart\":0,\"value\":96,\"valueType\":\"double\"},{\"name\":\"fgColor\",\"rangeEnd\":68,\"rangeStart\":0,\"value\":\"(68,68,68,255)\",\"valueType\":\"color\"}]",
                      "default-translation0" : 0.0,
                      "default-translation1" : 0.0
                    },
                    "animationTracks" : {

                    }
                  },
                  {
                    "id" : 29,
                    "_type" : "ScreenVMFile",
                    "src" : 3,
                    "trackNumber" : 0,
                    "attributes" : {
                      "ident" : "Rec 10-28-17 21"
                    },
                    "parameters" : {
                      "cursorScale" : {
                        "type" : "double",
                        "defaultValue" : 1.0,
                        "interp" : "linr"
                      },
                      "cursorOpacity" : {
                        "type" : "double",
                        "defaultValue" : 1.0,
                        "interp" : "linr"
                      }
                    },
                    "effects" : [
                        {
                          "effectName" : "LeftClickWarp",
                          "parameters" : {
                            "clickDuration" : 1.25,
                            "postClickPercent" : 100.0,
                            "radius" : 75.0,
                            "scale" : 0.5
                          }
                        },
                        {
                          "effectName" : "LeftClickSound",
                          "parameters" : {
                            "filename" : "mouse_click_single.wav",
                            "volume" : 1.0
                          }
                        }
                    ],
                    "start" : 1363,
                    "duration" : 452,
                    "mediaStart" : 0,
                    "mediaDuration" : 452,
                    "scalar" : 1,
                    "metadata" : {
                      "AutoAppliedSmartFocus" : "False",
                      "WinSubProjectDisplayName" : "",
                      "clipSpeedAttribute" : false,
                      "default-translation0" : 0.0
                    },
                    "animationTracks" : {

                    }
                  },
                  {
                    "id" : 30,
                    "_type" : "ScreenVMFile",
                    "src" : 3,
                    "trackNumber" : 0,
                    "attributes" : {
                      "ident" : "Rec 10-28-17 21"
                    },
                    "parameters" : {
                      "cursorScale" : {
                        "type" : "double",
                        "defaultValue" : 1.0,
                        "interp" : "linr"
                      },
                      "cursorOpacity" : {
                        "type" : "double",
                        "defaultValue" : 1.0,
                        "interp" : "linr"
                      }
                    },
                    "effects" : [
                        {
                          "effectName" : "LeftClickWarp",
                          "parameters" : {
                            "clickDuration" : 1.25,
                            "postClickPercent" : 100.0,
                            "radius" : 75.0,
                            "scale" : 0.5
                          }
                        }
                    ],
                    "start" : 1815,
                    "duration" : 26,
                    "mediaStart" : 452,
                    "mediaDuration" : 26,
                    "scalar" : 1,
                    "metadata" : {
                      "AutoAppliedSmartFocus" : "False",
                      "WinSubProjectDisplayName" : "",
                      "clipSpeedAttribute" : false,
                      "default-translation0" : 0.0
                    },
                    "animationTracks" : {

                    }
                  },
                  {
                    "id" : 31,
                    "_type" : "ScreenVMFile",
                    "src" : 3,
                    "trackNumber" : 0,
                    "attributes" : {
                      "ident" : "Rec 10-28-17 21"
                    },
                    "parameters" : {
                      "cursorScale" : {
                        "type" : "double",
                        "defaultValue" : 1.0,
                        "interp" : "linr"
                      },
                      "cursorOpacity" : {
                        "type" : "double",
                        "defaultValue" : 1.0,
                        "interp" : "linr"
                      }
                    },
                    "effects" : [
                        {
                          "effectName" : "LeftClickWarp",
                          "parameters" : {
                            "clickDuration" : 1.25,
                            "postClickPercent" : 100.0,
                            "radius" : 75.0,
                            "scale" : 0.5
                          }
                        }
                    ],
                    "start" : 1841,
                    "duration" : 90,
                    "mediaStart" : 536,
                    "mediaDuration" : 90,
                    "scalar" : 1,
                    "metadata" : {
                      "AutoAppliedSmartFocus" : "False",
                      "WinSubProjectDisplayName" : "",
                      "clipSpeedAttribute" : false,
                      "default-translation0" : 0.0
                    },
                    "animationTracks" : {

                    }
                  },
                  {
                    "id" : 32,
                    "_type" : "Callout",
                    "def" : {
                      "kind" : "remix",
                      "shape" : "text",
                      "style" : "basic",
                      "height" : 250.0,
                      "width" : 400.0,
                      "word-wrap" : 1.0,
                      "horizontal-alignment" : "center",
                      "text" : "Querying...",
                      "vertical-alignment" : "center",
                      "font" : {
                        "color-blue" : 1.0,
                        "color-green" : 1.0,
                        "color-red" : 1.0,
                        "size" : 96.0,
                        "tracking" : 0.0,
                        "name" : "Montserrat",
                        "weight" : "Regular"
                      },
                      "textAttributes" : {
                        "type" : "textAttributeList",
                        "keyframes" : [
                          {
                            "time" : 0,
                            "value" : [{"name":"fontSize","rangeEnd":11,"rangeStart":0,"value":96,"valueType":"double"},{"name":"fontItalic","rangeEnd":11,"rangeStart":0,"value":0,"valueType":"int"},{"name":"fontName","rangeEnd":11,"rangeStart":0,"value":"Montserrat","valueType":"string"},{"name":"strikethrough","rangeEnd":11,"rangeStart":0,"value":0,"valueType":"int"},{"name":"underline","rangeEnd":11,"rangeStart":0,"value":0,"valueType":"int"},{"name":"fgColor","rangeEnd":11,"rangeStart":0,"value":"(6,175,143,255)","valueType":"color"},{"name":"fontWeight","rangeEnd":11,"rangeStart":0,"value":700,"valueType":"int"}],
                            "duration" : 0
                          }
                        ]
                      }
                    },
                    "attributes" : {
                      "autoRotateText" : true
                    },
                    "parameters" : {
                      "translation0" : 52.3031423289725,
                      "translation1" : 46.491682070236
                    },
                    "effects" : [
                        {
                          "effectName" : "DropShadow",
                          "parameters" : {
                            "angle" : 5.49778714378214,
                            "blur" : 10.0,
                            "color-alpha" : 1.0,
                            "color-blue" : 0.1216,
                            "color-green" : 0.1216,
                            "color-red" : 0.1216,
                            "enabled" : 1,
                            "offset" : 10.0,
                            "opacity" : 0.4
                          }
                        }
                    ],
                    "start" : 2023,
                    "duration" : 150,
                    "mediaStart" : 0,
                    "mediaDuration" : 150,
                    "scalar" : 1,
                    "metadata" : {
                      "WinSubProjectDisplayName" : "",
                      "clipSpeedAttribute" : false,
                      "default-HAlign" : "center",
                      "default-VAlign" : "center",
                      "default-translation0" : 0.0,
                      "default-translation1" : 0.0
                    },
                    "animationTracks" : {

                    }
                  },
                  {
                    "id" : 33,
                    "_type" : "Callout",
                    "def" : {
                      "kind" : "remix",
                      "shape" : "text",
                      "style" : "basic",
                      "height" : 85.3419593347516,
                      "width" : 365.131238447188,
                      "word-wrap" : 1.0,
                      "horizontal-alignment" : "left",
                      "text" : "Various visualization options",
                      "vertical-alignment" : "center",
                      "font" : {
                        "color-blue" : 1.0,
                        "color-green" : 1.0,
                        "color-red" : 1.0,
                        "size" : 96.0,
                        "tracking" : 0.0,
                        "name" : "Montserrat",
                        "weight" : "Regular"
                      },
                      "textAttributes" : {
                        "type" : "textAttributeList",
                        "keyframes" : [
                          {
                            "time" : 0,
                            "value" : [{"name":"fontSize","rangeEnd":29,"rangeStart":0,"value":96,"valueType":"double"},{"name":"strikethrough","rangeEnd":29,"rangeStart":0,"value":0,"valueType":"int"},{"name":"fgColor","rangeEnd":29,"rangeStart":0,"value":"(6,175,143,255)","valueType":"color"},{"name":"fontWeight","rangeEnd":29,"rangeStart":0,"value":700,"valueType":"int"},{"name":"fontName","rangeEnd":29,"rangeStart":0,"value":"Montserrat","valueType":"string"},{"name":"underline","rangeEnd":29,"rangeStart":0,"value":0,"valueType":"int"},{"name":"fontItalic","rangeEnd":29,"rangeStart":0,"value":0,"valueType":"int"}],
                            "duration" : 0
                          }
                        ]
                      }
                    },
                    "attributes" : {
                      "autoRotateText" : true
                    },
                    "parameters" : {
                      "translation0" : 294.881700554598,
                      "translation1" : -183.700554528876
                    },
                    "effects" : [
                        {
                          "effectName" : "DropShadow",
                          "parameters" : {
                            "angle" : 5.49778714378214,
                            "blur" : 10.0,
                            "color-alpha" : 1.0,
                            "color-blue" : 0.1216,
                            "color-green" : 0.1216,
                            "color-red" : 0.1216,
                            "enabled" : 1,
                            "offset" : 10.0,
                            "opacity" : 0.4
                          }
                        }
                    ],
                    "start" : 2455,
                    "duration" : 150,
                    "mediaStart" : 0,
                    "mediaDuration" : 150,
                    "scalar" : 1,
                    "metadata" : {
                      "WinSubProjectDisplayName" : "",
                      "clipSpeedAttribute" : false,
                      "default-HAlign" : "center",
                      "default-VAlign" : "center",
                      "default-translation0" : 0.0,
                      "default-translation1" : 0.0
                    },
                    "animationTracks" : {

                    }
                  },
                  {
                    "id" : 34,
                    "_type" : "Callout",
                    "def" : {
                      "kind" : "remix",
                      "shape" : "text",
                      "style" : "basic",
                      "height" : 122.147874306911,
                      "width" : 624.709796672841,
                      "word-wrap" : 1.0,
                      "horizontal-alignment" : "center",
                      "text" : "Add property as column",
                      "vertical-alignment" : "center",
                      "font" : {
                        "color-blue" : 1.0,
                        "color-green" : 1.0,
                        "color-red" : 1.0,
                        "size" : 96.0,
                        "tracking" : 0.0,
                        "name" : "Montserrat",
                        "weight" : "Regular"
                      },
                      "textAttributes" : {
                        "type" : "textAttributeList",
                        "keyframes" : [
                          {
                            "time" : 0,
                            "value" : [{"name":"fontItalic","rangeEnd":22,"rangeStart":0,"value":0,"valueType":"int"},{"name":"fontWeight","rangeEnd":22,"rangeStart":0,"value":700,"valueType":"int"},{"name":"fgColor","rangeEnd":22,"rangeStart":0,"value":"(6,175,143,255)","valueType":"color"},{"name":"underline","rangeEnd":22,"rangeStart":0,"value":0,"valueType":"int"},{"name":"fontSize","rangeEnd":22,"rangeStart":0,"value":96,"valueType":"double"},{"name":"strikethrough","rangeEnd":22,"rangeStart":0,"value":0,"valueType":"int"},{"name":"fontName","rangeEnd":22,"rangeStart":0,"value":"Montserrat","valueType":"string"}],
                            "duration" : 0
                          }
                        ]
                      }
                    },
                    "attributes" : {
                      "autoRotateText" : true
                    },
                    "parameters" : {
                      "translation0" : 441.81608133068,
                      "translation1" : -316.951016636036
                    },
                    "effects" : [
                        {
                          "effectName" : "DropShadow",
                          "parameters" : {
                            "angle" : 5.49778714378214,
                            "blur" : 10.0,
                            "color-alpha" : 1.0,
                            "color-blue" : 0.1216,
                            "color-green" : 0.1216,
                            "color-red" : 0.1216,
                            "enabled" : 1,
                            "offset" : 10.0,
                            "opacity" : 0.4
                          }
                        }
                    ],
                    "start" : 2834,
                    "duration" : 150,
                    "mediaStart" : 0,
                    "mediaDuration" : 150,
                    "scalar" : 1,
                    "metadata" : {
                      "WinSubProjectDisplayName" : "",
                      "clipSpeedAttribute" : false,
                      "default-HAlign" : "center",
                      "default-VAlign" : "center",
                      "default-translation0" : 0.0,
                      "default-translation1" : 0.0
                    },
                    "animationTracks" : {

                    }
                  },
                  {
                    "id" : 35,
                    "_type" : "Callout",
                    "def" : {
                      "kind" : "remix",
                      "shape" : "text",
                      "style" : "basic",
                      "height" : 250.0,
                      "width" : 400.0,
                      "word-wrap" : 1.0,
                      "horizontal-alignment" : "center",
                      "text" : "Querying...",
                      "vertical-alignment" : "center",
                      "font" : {
                        "color-blue" : 1.0,
                        "color-green" : 1.0,
                        "color-red" : 1.0,
                        "size" : 96.0,
                        "tracking" : 0.0,
                        "name" : "Montserrat",
                        "weight" : "Regular"
                      },
                      "textAttributes" : {
                        "type" : "textAttributeList",
                        "keyframes" : [
                          {
                            "time" : 0,
                            "value" : [{"name":"fontName","rangeEnd":11,"rangeStart":0,"value":"Montserrat","valueType":"string"},{"name":"fontWeight","rangeEnd":11,"rangeStart":0,"value":700,"valueType":"int"},{"name":"fontItalic","rangeEnd":11,"rangeStart":0,"value":0,"valueType":"int"},{"name":"strikethrough","rangeEnd":11,"rangeStart":0,"value":0,"valueType":"int"},{"name":"fontSize","rangeEnd":11,"rangeStart":0,"value":96,"valueType":"double"},{"name":"fgColor","rangeEnd":11,"rangeStart":0,"value":"(6,175,143,255)","valueType":"color"},{"name":"underline","rangeEnd":11,"rangeStart":0,"value":0,"valueType":"int"}],
                            "duration" : 0
                          }
                        ]
                      }
                    },
                    "attributes" : {
                      "autoRotateText" : true
                    },
                    "parameters" : {
                      "translation0" : 464.916820702252,
                      "translation1" : 25.1829944546636
                    },
                    "effects" : [
                        {
                          "effectName" : "DropShadow",
                          "parameters" : {
                            "angle" : 5.49778714378214,
                            "blur" : 10.0,
                            "color-alpha" : 1.0,
                            "color-blue" : 0.1216,
                            "color-green" : 0.1216,
                            "color-red" : 0.1216,
                            "enabled" : 1,
                            "offset" : 10.0,
                            "opacity" : 0.4
                          }
                        }
                    ],
                    "start" : 3225,
                    "duration" : 105,
                    "mediaStart" : 0,
                    "mediaDuration" : 105,
                    "scalar" : 1,
                    "metadata" : {
                      "WinSubProjectDisplayName" : "",
                      "clipSpeedAttribute" : false,
                      "default-HAlign" : "center",
                      "default-VAlign" : "center",
                      "default-translation0" : 0.0,
                      "default-translation1" : 0.0
                    },
                    "animationTracks" : {

                    }
                  },
                  {
                    "id" : 36,
                    "_type" : "Callout",
                    "def" : {
                      "kind" : "remix",
                      "shape" : "text",
                      "style" : "basic",
                      "height" : 89.2162661737599,
                      "width" : 339.948243992578,
                      "word-wrap" : 1.0,
                      "horizontal-alignment" : "center",
                      "text" : "Enlarge",
                      "vertical-alignment" : "center",
                      "font" : {
                        "color-blue" : 1.0,
                        "color-green" : 1.0,
                        "color-red" : 1.0,
                        "size" : 96.0,
                        "tracking" : 0.0,
                        "name" : "Montserrat",
                        "weight" : "Regular"
                      },
                      "textAttributes" : {
                        "type" : "textAttributeList",
                        "keyframes" : [
                          {
                            "time" : 0,
                            "value" : [{"name":"strikethrough","rangeEnd":7,"rangeStart":0,"value":0,"valueType":"int"},{"name":"fontItalic","rangeEnd":7,"rangeStart":0,"value":0,"valueType":"int"},{"name":"fontName","rangeEnd":7,"rangeStart":0,"value":"Montserrat","valueType":"string"},{"name":"fgColor","rangeEnd":7,"rangeStart":0,"value":"(6,175,143,255)","valueType":"color"},{"name":"underline","rangeEnd":7,"rangeStart":0,"value":0,"valueType":"int"},{"name":"fontWeight","rangeEnd":7,"rangeStart":0,"value":700,"valueType":"int"},{"name":"fontSize","rangeEnd":7,"rangeStart":0,"value":96,"valueType":"double"}],
                            "duration" : 0
                          }
                        ]
                      }
                    },
                    "attributes" : {
                      "autoRotateText" : true
                    },
                    "parameters" : {
                      "translation0" : 635.182994454767,
                      "translation1" : -348.94824399274
                    },
                    "effects" : [
                        {
                          "effectName" : "DropShadow",
                          "parameters" : {
                            "angle" : 5.49778714378214,
                            "blur" : 10.0,
                            "color-alpha" : 1.0,
                            "color-blue" : 0.1216,
                            "color-green" : 0.1216,
                            "color-red" : 0.1216,
                            "enabled" : 1,
                            "offset" : 10.0,
                            "opacity" : 0.4
                          }
                        }
                    ],
                    "start" : 3580,
                    "duration" : 52,
                    "mediaStart" : 0,
                    "mediaDuration" : 52,
                    "scalar" : 1,
                    "metadata" : {
                      "WinSubProjectDisplayName" : "",
                      "clipSpeedAttribute" : false,
                      "default-HAlign" : "center",
                      "default-VAlign" : "center",
                      "default-translation0" : 0.0,
                      "default-translation1" : 0.0
                    },
                    "animationTracks" : {

                    }
                  },
                  {
                    "id" : 37,
                    "_type" : "Callout",
                    "def" : {
                      "kind" : "remix",
                      "shape" : "text",
                      "style" : "basic",
                      "height" : 106.650646950246,
                      "width" : 531.726432532129,
                      "word-wrap" : 1.0,
                      "horizontal-alignment" : "center",
                      "text" : "Linked Data Reactor",
                      "vertical-alignment" : "center",
                      "font" : {
                        "color-blue" : 1.0,
                        "color-green" : 1.0,
                        "color-red" : 1.0,
                        "size" : 96.0,
                        "tracking" : 0.0,
                        "name" : "Montserrat",
                        "weight" : "Regular"
                      },
                      "textAttributes" : {
                        "type" : "textAttributeList",
                        "keyframes" : [
                          {
                            "time" : 0,
                            "value" : [{"name":"underline","rangeEnd":19,"rangeStart":0,"value":0,"valueType":"int"},{"name":"fontWeight","rangeEnd":19,"rangeStart":0,"value":700,"valueType":"int"},{"name":"fontName","rangeEnd":19,"rangeStart":0,"value":"Montserrat","valueType":"string"},{"name":"fgColor","rangeEnd":19,"rangeStart":0,"value":"(68,68,68,255)","valueType":"color"},{"name":"fontItalic","rangeEnd":19,"rangeStart":0,"value":0,"valueType":"int"},{"name":"strikethrough","rangeEnd":19,"rangeStart":0,"value":0,"valueType":"int"},{"name":"fontSize","rangeEnd":19,"rangeStart":0,"value":96,"valueType":"double"}],
                            "duration" : 0
                          }
                        ]
                      }
                    },
                    "attributes" : {
                      "autoRotateText" : true
                    },
                    "parameters" : {
                      "translation0" : 0.136783733562907,
                      "translation1" : -166.209425582976
                    },
                    "effects" : [

                    ],
                    "start" : 5589,
                    "duration" : 102,
                    "mediaStart" : -145,
                    "mediaDuration" : 102,
                    "scalar" : 1,
                    "metadata" : {
                      "WinSubProjectDisplayName" : "",
                      "clipSpeedAttribute" : false,
                      "default-HAlign" : "center",
                      "default-VAlign" : "center",
                      "default-rotation0" : 0.0,
                      "default-rotation1" : 0.0,
                      "default-rotation2" : 0.0,
                      "default-translation0" : 0.0,
                      "default-translation1" : 0.0
                    },
                    "animationTracks" : {

                    }
                  }
                ],
                "transitions" : [
                  {
                    "name" : "Glow",
                    "duration" : 16,
                    "useAudioPreRoll" : true,
                    "useVisualPreRoll" : true,
                    "rightMedia" : 37
                  },
                  {
                    "name" : "Glow",
                    "duration" : 30,
                    "useAudioPreRoll" : true,
                    "useVisualPreRoll" : true,
                    "leftMedia" : 37
                  }
                ]
              },
              {
                "trackIndex" : 4,
                "medias" : [
                  {
                    "id" : 38,
                    "_type" : "ScreenVMFile",
                    "src" : 1,
                    "trackNumber" : 0,
                    "attributes" : {
                      "ident" : "Rec 10-28-17 17"
                    },
                    "parameters" : {
                      "cursorScale" : {
                        "type" : "double",
                        "defaultValue" : 1.0,
                        "interp" : "linr"
                      },
                      "cursorOpacity" : {
                        "type" : "double",
                        "defaultValue" : 1.0,
                        "interp" : "linr"
                      }
                    },
                    "effects" : [
                        {
                          "effectName" : "LeftClickWarp",
                          "parameters" : {
                            "clickDuration" : 1.25,
                            "postClickPercent" : 100.0,
                            "radius" : 75.0,
                            "scale" : 0.5
                          }
                        },
                        {
                          "effectName" : "LeftClickSound",
                          "parameters" : {
                            "filename" : "mouse_click_single.wav",
                            "volume" : 1.0
                          }
                        }
                    ],
                    "start" : 491,
                    "duration" : 639,
                    "mediaStart" : 31,
                    "mediaDuration" : "418545/992",
                    "scalar" : "992/655",
                    "metadata" : {
                      "AutoAppliedSmartFocus" : "False",
                      "WinSubProjectDisplayName" : "",
                      "clipSpeedAttribute" : true,
                      "default-scale0" : 1.0,
                      "default-scale1" : 1.0,
                      "default-translation0" : 0.0,
                      "default-translation1" : 0.0
                    },
                    "animationTracks" : {

                    }
                  },
                  {
                    "id" : 39,
                    "_type" : "ScreenVMFile",
                    "src" : 1,
                    "trackNumber" : 0,
                    "attributes" : {
                      "ident" : "Rec 10-28-17 17"
                    },
                    "parameters" : {
                      "cursorScale" : {
                        "type" : "double",
                        "defaultValue" : 1.0,
                        "interp" : "linr"
                      },
                      "cursorOpacity" : {
                        "type" : "double",
                        "defaultValue" : 1.0,
                        "interp" : "linr"
                      }
                    },
                    "effects" : [
                        {
                          "effectName" : "LeftClickWarp",
                          "parameters" : {
                            "clickDuration" : 1.25,
                            "postClickPercent" : 100.0,
                            "radius" : 75.0,
                            "scale" : 0.5
                          }
                        },
                        {
                          "effectName" : "LeftClickSound",
                          "parameters" : {
                            "filename" : "mouse_click_single.wav",
                            "volume" : 1.0
                          }
                        }
                    ],
                    "start" : 1130,
                    "duration" : 233,
                    "mediaStart" : "449297/992",
                    "mediaDuration" : "231215/992",
                    "scalar" : "231136/231215",
                    "metadata" : {
                      "AutoAppliedSmartFocus" : "False",
                      "WinSubProjectDisplayName" : "",
                      "clipSpeedAttribute" : true,
                      "default-scale0" : 1.0,
                      "default-scale1" : 1.0
                    },
                    "animationTracks" : {

                    }
                  },
                  {
                    "id" : 40,
                    "_type" : "Callout",
                    "def" : {
                      "kind" : "remix",
                      "shape" : "text",
                      "style" : "basic",
                      "height" : 186.073937153497,
                      "width" : 584.02957486121,
                      "word-wrap" : 1.0,
                      "horizontal-alignment" : "center",
                      "text" : "Entity browser",
                      "vertical-alignment" : "center",
                      "font" : {
                        "color-blue" : 1.0,
                        "color-green" : 1.0,
                        "color-red" : 1.0,
                        "size" : 96.0,
                        "tracking" : 0.0,
                        "name" : "Montserrat",
                        "weight" : "Regular"
                      },
                      "textAttributes" : {
                        "type" : "textAttributeList",
                        "keyframes" : [
                          {
                            "time" : 0,
                            "value" : [{"name":"underline","rangeEnd":14,"rangeStart":0,"value":0,"valueType":"int"},{"name":"fgColor","rangeEnd":14,"rangeStart":0,"value":"(6,175,143,255)","valueType":"color"},{"name":"fontItalic","rangeEnd":14,"rangeStart":0,"value":0,"valueType":"int"},{"name":"fontWeight","rangeEnd":14,"rangeStart":0,"value":700,"valueType":"int"},{"name":"fontName","rangeEnd":14,"rangeStart":0,"value":"Montserrat","valueType":"string"},{"name":"strikethrough","rangeEnd":14,"rangeStart":0,"value":0,"valueType":"int"},{"name":"fontSize","rangeEnd":14,"rangeStart":0,"value":96,"valueType":"double"}],
                            "duration" : 0
                          }
                        ]
                      }
                    },
                    "attributes" : {
                      "autoRotateText" : true
                    },
                    "parameters" : {
                      "translation0" : -128.335489833682,
                      "translation1" : 260.095194084885
                    },
                    "effects" : [
                        {
                          "effectName" : "DropShadow",
                          "parameters" : {
                            "angle" : 5.49778714378214,
                            "blur" : 10.0,
                            "color-alpha" : 1.0,
                            "color-blue" : 0.1216,
                            "color-green" : 0.1216,
                            "color-red" : 0.1216,
                            "enabled" : 1,
                            "offset" : 10.0,
                            "opacity" : 0.4
                          }
                        }
                    ],
                    "start" : 1363,
                    "duration" : 53,
                    "mediaStart" : 0,
                    "mediaDuration" : 53,
                    "scalar" : 1,
                    "metadata" : {
                      "WinSubProjectDisplayName" : "",
                      "clipSpeedAttribute" : false,
                      "default-HAlign" : "center",
                      "default-VAlign" : "center",
                      "default-translation0" : 0.0,
                      "default-translation1" : 0.0
                    },
                    "animationTracks" : {

                    }
                  },
                  {
                    "id" : 41,
                    "_type" : "Callout",
                    "def" : {
                      "kind" : "remix",
                      "shape" : "text",
                      "style" : "basic",
                      "height" : 54.347504621162,
                      "width" : 731.253234750186,
                      "word-wrap" : 1.0,
                      "horizontal-alignment" : "center",
                      "text" : "Possibility to edit entities directly from browser",
                      "vertical-alignment" : "center",
                      "font" : {
                        "color-blue" : 1.0,
                        "color-green" : 1.0,
                        "color-red" : 1.0,
                        "size" : 96.0,
                        "tracking" : 0.0,
                        "name" : "Montserrat",
                        "weight" : "Regular"
                      },
                      "textAttributes" : {
                        "type" : "textAttributeList",
                        "keyframes" : [
                          {
                            "time" : 0,
                            "value" : [{"name":"fontName","rangeEnd":50,"rangeStart":0,"value":"Montserrat","valueType":"string"},{"name":"fontSize","rangeEnd":50,"rangeStart":0,"value":96,"valueType":"double"},{"name":"underline","rangeEnd":50,"rangeStart":0,"value":0,"valueType":"int"},{"name":"strikethrough","rangeEnd":50,"rangeStart":0,"value":0,"valueType":"int"},{"name":"fontWeight","rangeEnd":50,"rangeStart":0,"value":700,"valueType":"int"},{"name":"fontItalic","rangeEnd":50,"rangeStart":0,"value":0,"valueType":"int"},{"name":"fgColor","rangeEnd":50,"rangeStart":0,"value":"(6,175,143,255)","valueType":"color"}],
                            "duration" : 0
                          }
                        ]
                      }
                    },
                    "attributes" : {
                      "autoRotateText" : true
                    },
                    "parameters" : {
                      "translation0" : -214.155267768418,
                      "translation1" : -26.8475041416597
                    },
                    "effects" : [
                        {
                          "effectName" : "DropShadow",
                          "parameters" : {
                            "angle" : 5.49778714378214,
                            "blur" : 10.0,
                            "color-alpha" : 1.0,
                            "color-blue" : 0.1216,
                            "color-green" : 0.1216,
                            "color-red" : 0.1216,
                            "enabled" : 1,
                            "offset" : 10.0,
                            "opacity" : 0.4
                          }
                        }
                    ],
                    "start" : 1520,
                    "duration" : 86,
                    "mediaStart" : 0,
                    "mediaDuration" : 86,
                    "scalar" : 1,
                    "metadata" : {
                      "WinSubProjectDisplayName" : "",
                      "clipSpeedAttribute" : false,
                      "default-HAlign" : "center",
                      "default-VAlign" : "center",
                      "default-translation0" : 0.0,
                      "default-translation1" : 0.0
                    },
                    "animationTracks" : {

                    }
                  },
                  {
                    "id" : 42,
                    "_type" : "Callout",
                    "def" : {
                      "kind" : "remix",
                      "shape" : "text",
                      "style" : "basic",
                      "height" : 259.685767098048,
                      "width" : 427.120147874208,
                      "word-wrap" : 1.0,
                      "horizontal-alignment" : "center",
                      "text" : "Querying...",
                      "vertical-alignment" : "center",
                      "font" : {
                        "color-blue" : 1.0,
                        "color-green" : 1.0,
                        "color-red" : 1.0,
                        "size" : 96.0,
                        "tracking" : 0.0,
                        "name" : "Montserrat",
                        "weight" : "Regular"
                      },
                      "textAttributes" : {
                        "type" : "textAttributeList",
                        "keyframes" : [
                          {
                            "time" : 0,
                            "value" : [{"name":"fontSize","rangeEnd":11,"rangeStart":0,"value":96,"valueType":"double"},{"name":"fontWeight","rangeEnd":11,"rangeStart":0,"value":700,"valueType":"int"},{"name":"strikethrough","rangeEnd":11,"rangeStart":0,"value":0,"valueType":"int"},{"name":"fgColor","rangeEnd":11,"rangeStart":0,"value":"(6,175,143,255)","valueType":"color"},{"name":"fontItalic","rangeEnd":11,"rangeStart":0,"value":0,"valueType":"int"},{"name":"fontName","rangeEnd":11,"rangeStart":0,"value":"Montserrat","valueType":"string"},{"name":"underline","rangeEnd":11,"rangeStart":0,"value":0,"valueType":"int"}],
                            "duration" : 0
                          }
                        ]
                      }
                    },
                    "attributes" : {
                      "autoRotateText" : true
                    },
                    "parameters" : {
                      "translation0" : 465.356746764962,
                      "translation1" : 58.2717190385583
                    },
                    "effects" : [
                        {
                          "effectName" : "DropShadow",
                          "parameters" : {
                            "angle" : 5.49778714378214,
                            "blur" : 10.0,
                            "color-alpha" : 1.0,
                            "color-blue" : 0.1216,
                            "color-green" : 0.1216,
                            "color-red" : 0.1216,
                            "enabled" : 1,
                            "offset" : 10.0,
                            "opacity" : 0.4
                          }
                        }
                    ],
                    "start" : 2921,
                    "duration" : 150,
                    "mediaStart" : 0,
                    "mediaDuration" : 150,
                    "scalar" : 1,
                    "metadata" : {
                      "WinSubProjectDisplayName" : "",
                      "clipSpeedAttribute" : false,
                      "default-HAlign" : "center",
                      "default-VAlign" : "center",
                      "default-translation0" : 0.0,
                      "default-translation1" : 0.0
                    },
                    "animationTracks" : {

                    }
                  },
                  {
                    "id" : 43,
                    "_type" : "Callout",
                    "def" : {
                      "kind" : "remix",
                      "shape" : "text",
                      "style" : "basic",
                      "height" : 30.9206447061443,
                      "width" : 116.459616289874,
                      "word-wrap" : 1.0,
                      "horizontal-alignment" : "center",
                      "text" : "ld-r.org",
                      "vertical-alignment" : "center",
                      "font" : {
                        "color-blue" : 1.0,
                        "color-green" : 1.0,
                        "color-red" : 1.0,
                        "size" : 96.0,
                        "tracking" : 0.0,
                        "name" : "Montserrat",
                        "weight" : "Regular"
                      },
                      "textAttributes" : {
                        "type" : "textAttributeList",
                        "keyframes" : [
                          {
                            "time" : 0,
                            "value" : [{"name":"underline","rangeEnd":8,"rangeStart":0,"value":0,"valueType":"int"},{"name":"fgColor","rangeEnd":8,"rangeStart":0,"value":"(68,68,68,255)","valueType":"color"},{"name":"strikethrough","rangeEnd":8,"rangeStart":0,"value":0,"valueType":"int"},{"name":"fontSize","rangeEnd":8,"rangeStart":0,"value":96,"valueType":"double"},{"name":"fontName","rangeEnd":8,"rangeStart":0,"value":"Montserrat","valueType":"string"},{"name":"fontWeight","rangeEnd":8,"rangeStart":0,"value":100,"valueType":"int"},{"name":"fontItalic","rangeEnd":8,"rangeStart":0,"value":0,"valueType":"int"}],
                            "duration" : 0
                          }
                        ]
                      }
                    },
                    "attributes" : {
                      "autoRotateText" : true
                    },
                    "parameters" : {
                      "translation0" : 214.615396928335,
                      "translation1" : -219.660711841537,
                      "scale0" : 1.22773766315483,
                      "scale1" : 1.22773766315483
                    },
                    "effects" : [
                        {
                          "effectName" : "DropShadow",
                          "parameters" : {
                            "angle" : 5.49778714378214,
                            "blur" : 10.0,
                            "color-alpha" : 1.0,
                            "color-blue" : 0.1216,
                            "color-green" : 0.1216,
                            "color-red" : 0.1216,
                            "enabled" : 1,
                            "offset" : 10.0,
                            "opacity" : 0.4
                          }
                        }
                    ],
                    "start" : 5589,
                    "duration" : 92,
                    "mediaStart" : -128,
                    "mediaDuration" : 92,
                    "scalar" : 1,
                    "metadata" : {
                      "WinSubProjectDisplayName" : "",
                      "clipSpeedAttribute" : false,
                      "default-HAlign" : "center",
                      "default-VAlign" : "center",
                      "default-scale0" : 1.0,
                      "default-scale1" : 1.0,
                      "default-translation0" : 0.0,
                      "default-translation1" : 0.0
                    },
                    "animationTracks" : {

                    }
                  }
                ],
                "transitions" : [
                  {
                    "name" : "Glow",
                    "duration" : 16,
                    "useAudioPreRoll" : true,
                    "useVisualPreRoll" : true,
                    "rightMedia" : 43
                  },
                  {
                    "name" : "Glow",
                    "duration" : 30,
                    "useAudioPreRoll" : true,
                    "useVisualPreRoll" : true,
                    "leftMedia" : 43
                  }
                ]
              },
              {
                "trackIndex" : 5,
                "medias" : [
                  {
                    "id" : 44,
                    "_type" : "ScreenVMFile",
                    "src" : 11,
                    "trackNumber" : 0,
                    "attributes" : {
                      "ident" : "Rec 10-28-17 31"
                    },
                    "parameters" : {
                      "cursorScale" : {
                        "type" : "double",
                        "defaultValue" : 1.0,
                        "interp" : "linr"
                      },
                      "cursorOpacity" : {
                        "type" : "double",
                        "defaultValue" : 1.0,
                        "interp" : "linr"
                      }
                    },
                    "effects" : [
                        {
                          "effectName" : "LeftClickWarp",
                          "parameters" : {
                            "clickDuration" : 1.25,
                            "postClickPercent" : 100.0,
                            "radius" : 75.0,
                            "scale" : 0.5
                          }
                        },
                        {
                          "effectName" : "LeftClickSound",
                          "parameters" : {
                            "filename" : "mouse_click_single.wav",
                            "volume" : 1.0
                          }
                        }
                    ],
                    "start" : 73,
                    "duration" : 81,
                    "mediaStart" : 0,
                    "mediaDuration" : 81,
                    "scalar" : 1,
                    "metadata" : {
                      "AutoAppliedSmartFocus" : "False",
                      "WinSubProjectDisplayName" : "",
                      "clipSpeedAttribute" : false
                    },
                    "animationTracks" : {

                    }
                  },
                  {
                    "id" : 45,
                    "_type" : "ScreenVMFile",
                    "src" : 11,
                    "trackNumber" : 0,
                    "attributes" : {
                      "ident" : "Rec 10-28-17 31"
                    },
                    "parameters" : {
                      "cursorScale" : {
                        "type" : "double",
                        "defaultValue" : 1.0,
                        "interp" : "linr"
                      },
                      "cursorOpacity" : {
                        "type" : "double",
                        "defaultValue" : 1.0,
                        "interp" : "linr"
                      }
                    },
                    "effects" : [
                        {
                          "effectName" : "LeftClickWarp",
                          "parameters" : {
                            "clickDuration" : 1.25,
                            "postClickPercent" : 100.0,
                            "radius" : 75.0,
                            "scale" : 0.5
                          }
                        },
                        {
                          "effectName" : "LeftClickSound",
                          "parameters" : {
                            "filename" : "mouse_click_single.wav",
                            "volume" : 1.0
                          }
                        }
                    ],
                    "start" : 154,
                    "duration" : 337,
                    "mediaStart" : 127,
                    "mediaDuration" : "45758/337",
                    "scalar" : "113569/45758",
                    "metadata" : {
                      "AutoAppliedSmartFocus" : "False",
                      "WinSubProjectDisplayName" : "",
                      "clipSpeedAttribute" : true
                    },
                    "animationTracks" : {

                    }
                  },
                  {
                    "id" : 46,
                    "_type" : "Callout",
                    "def" : {
                      "kind" : "remix",
                      "shape" : "text",
                      "style" : "basic",
                      "height" : 52.4103528233838,
                      "width" : 336.073937153226,
                      "word-wrap" : 1.0,
                      "horizontal-alignment" : "center",
                      "text" : "Property URIs",
                      "vertical-alignment" : "center",
                      "font" : {
                        "color-blue" : 1.0,
                        "color-green" : 1.0,
                        "color-red" : 1.0,
                        "size" : 96.0,
                        "tracking" : 0.0,
                        "name" : "Montserrat",
                        "weight" : "Regular"
                      },
                      "textAttributes" : {
                        "type" : "textAttributeList",
                        "keyframes" : [
                          {
                            "time" : 0,
                            "value" : [{"name":"fontSize","rangeEnd":13,"rangeStart":0,"value":96,"valueType":"double"},{"name":"strikethrough","rangeEnd":13,"rangeStart":0,"value":0,"valueType":"int"},{"name":"fontName","rangeEnd":13,"rangeStart":0,"value":"Montserrat","valueType":"string"},{"name":"underline","rangeEnd":13,"rangeStart":0,"value":0,"valueType":"int"},{"name":"fontWeight","rangeEnd":13,"rangeStart":0,"value":700,"valueType":"int"},{"name":"fgColor","rangeEnd":13,"rangeStart":0,"value":"(6,175,143,255)","valueType":"color"},{"name":"fontItalic","rangeEnd":13,"rangeStart":0,"value":0,"valueType":"int"}],
                            "duration" : 0
                          }
                        ]
                      }
                    },
                    "attributes" : {
                      "autoRotateText" : true
                    },
                    "parameters" : {
                      "translation0" : -598.117375231651,
                      "translation1" : -275.749537082702
                    },
                    "effects" : [
                        {
                          "effectName" : "DropShadow",
                          "parameters" : {
                            "angle" : 5.49778714378214,
                            "blur" : 10.0,
                            "color-alpha" : 1.0,
                            "color-blue" : 0.1216,
                            "color-green" : 0.1216,
                            "color-red" : 0.1216,
                            "enabled" : 1,
                            "offset" : 10.0,
                            "opacity" : 0.4
                          }
                        }
                    ],
                    "start" : 716,
                    "duration" : 130,
                    "mediaStart" : 0,
                    "mediaDuration" : 130,
                    "scalar" : 1,
                    "metadata" : {
                      "WinSubProjectDisplayName" : "",
                      "clipSpeedAttribute" : false,
                      "default-HAlign" : "center",
                      "default-VAlign" : "center",
                      "default-translation0" : 0.0,
                      "default-translation1" : 0.0
                    },
                    "animationTracks" : {

                    }
                  },
                  {
                    "id" : 47,
                    "_type" : "Callout",
                    "def" : {
                      "kind" : "remix",
                      "shape" : "text",
                      "style" : "basic",
                      "height" : 250.0,
                      "width" : 400.0,
                      "word-wrap" : 1.0,
                      "horizontal-alignment" : "center",
                      "text" : "Querying...",
                      "vertical-alignment" : "center",
                      "font" : {
                        "color-blue" : 1.0,
                        "color-green" : 1.0,
                        "color-red" : 1.0,
                        "size" : 96.0,
                        "tracking" : 0.0,
                        "name" : "Montserrat",
                        "weight" : "Regular"
                      },
                      "textAttributes" : {
                        "type" : "textAttributeList",
                        "keyframes" : [
                          {
                            "time" : 0,
                            "value" : [{"name":"fontItalic","rangeEnd":11,"rangeStart":0,"value":0,"valueType":"int"},{"name":"strikethrough","rangeEnd":11,"rangeStart":0,"value":0,"valueType":"int"},{"name":"fgColor","rangeEnd":11,"rangeStart":0,"value":"(6,175,143,255)","valueType":"color"},{"name":"underline","rangeEnd":11,"rangeStart":0,"value":0,"valueType":"int"},{"name":"fontSize","rangeEnd":11,"rangeStart":0,"value":96,"valueType":"double"},{"name":"fontWeight","rangeEnd":11,"rangeStart":0,"value":700,"valueType":"int"},{"name":"fontName","rangeEnd":11,"rangeStart":0,"value":"Montserrat","valueType":"string"}],
                            "duration" : 0
                          }
                        ]
                      }
                    },
                    "attributes" : {
                      "autoRotateText" : true
                    },
                    "parameters" : {
                      "translation0" : 457.168207023957,
                      "translation1" : 45.5231053603396
                    },
                    "effects" : [
                        {
                          "effectName" : "DropShadow",
                          "parameters" : {
                            "angle" : 5.49778714378214,
                            "blur" : 10.0,
                            "color-alpha" : 1.0,
                            "color-blue" : 0.1216,
                            "color-green" : 0.1216,
                            "color-red" : 0.1216,
                            "enabled" : 1,
                            "offset" : 10.0,
                            "opacity" : 0.4
                          }
                        }
                    ],
                    "start" : 1157,
                    "duration" : 92,
                    "mediaStart" : 0,
                    "mediaDuration" : 92,
                    "scalar" : 1,
                    "metadata" : {
                      "WinSubProjectDisplayName" : "",
                      "clipSpeedAttribute" : false,
                      "default-HAlign" : "center",
                      "default-VAlign" : "center",
                      "default-translation0" : 0.0,
                      "default-translation1" : 0.0
                    },
                    "animationTracks" : {

                    }
                  },
                  {
                    "id" : 48,
                    "_type" : "ScreenVMFile",
                    "src" : 13,
                    "trackNumber" : 0,
                    "attributes" : {
                      "ident" : "Rec 10-28-17 33"
                    },
                    "parameters" : {
                      "cursorScale" : {
                        "type" : "double",
                        "defaultValue" : 1.0,
                        "interp" : "linr"
                      },
                      "cursorOpacity" : {
                        "type" : "double",
                        "defaultValue" : 1.0,
                        "interp" : "linr"
                      }
                    },
                    "effects" : [
                        {
                          "effectName" : "LeftClickWarp",
                          "parameters" : {
                            "clickDuration" : 1.25,
                            "postClickPercent" : 100.0,
                            "radius" : 75.0,
                            "scale" : 0.5
                          }
                        },
                        {
                          "effectName" : "LeftClickSound",
                          "parameters" : {
                            "filename" : "mouse_click_single.wav",
                            "volume" : 1.0
                          }
                        }
                    ],
                    "start" : 4091,
                    "duration" : 140,
                    "mediaStart" : 0,
                    "mediaDuration" : 140,
                    "scalar" : 1,
                    "metadata" : {
                      "AutoAppliedSmartFocus" : "False",
                      "WinSubProjectDisplayName" : "",
                      "clipSpeedAttribute" : false
                    },
                    "animationTracks" : {

                    }
                  },
                  {
                    "id" : 49,
                    "_type" : "ScreenVMFile",
                    "src" : 14,
                    "trackNumber" : 0,
                    "attributes" : {
                      "ident" : "Rec 10-28-17 34"
                    },
                    "parameters" : {
                      "translation0" : {
                        "type" : "double",
                        "defaultValue" : 2.0000000000494,
                        "interp" : "eioe"
                      },
                      "cursorScale" : {
                        "type" : "double",
                        "defaultValue" : 1.0,
                        "interp" : "linr"
                      },
                      "cursorOpacity" : {
                        "type" : "double",
                        "defaultValue" : 1.0,
                        "interp" : "linr"
                      }
                    },
                    "effects" : [
                        {
                          "effectName" : "LeftClickWarp",
                          "parameters" : {
                            "clickDuration" : 1.25,
                            "postClickPercent" : 100.0,
                            "radius" : 75.0,
                            "scale" : 0.5
                          }
                        },
                        {
                          "effectName" : "LeftClickSound",
                          "parameters" : {
                            "filename" : "mouse_click_single.wav",
                            "volume" : 1.0
                          }
                        }
                    ],
                    "start" : 4231,
                    "duration" : 162,
                    "mediaStart" : 0,
                    "mediaDuration" : 28,
                    "scalar" : "81/14",
                    "metadata" : {
                      "AutoAppliedSmartFocus" : "False",
                      "WinSubProjectDisplayName" : "",
                      "clipSpeedAttribute" : true,
                      "default-translation0" : 0.0
                    },
                    "animationTracks" : {

                    }
                  },
                  {
                    "id" : 50,
                    "_type" : "ScreenVMFile",
                    "src" : 14,
                    "trackNumber" : 0,
                    "attributes" : {
                      "ident" : "Rec 10-28-17 34"
                    },
                    "parameters" : {
                      "translation0" : {
                        "type" : "double",
                        "defaultValue" : 1.99999999999534,
                        "interp" : "eioe",
                        "keyframes" : [
                          {
                            "time" : 363,
                            "value" : 373.168432126431,
                            "duration" : 30
                          }
                        ]
                      },
                      "translation1" : {
                        "type" : "double",
                        "defaultValue" : 0.0,
                        "interp" : "eioe",
                        "keyframes" : [
                          {
                            "time" : 363,
                            "value" : 133.253561617259,
                            "duration" : 30
                          }
                        ]
                      },
                      "scale0" : {
                        "type" : "double",
                        "defaultValue" : 1.0,
                        "interp" : "eioe",
                        "keyframes" : [
                          {
                            "time" : 363,
                            "value" : 1.44769503473973,
                            "duration" : 30
                          }
                        ]
                      },
                      "scale1" : {
                        "type" : "double",
                        "defaultValue" : 1.0,
                        "interp" : "eioe",
                        "keyframes" : [
                          {
                            "time" : 363,
                            "value" : 1.44769524750584,
                            "duration" : 30
                          }
                        ]
                      },
                      "cursorScale" : {
                        "type" : "double",
                        "defaultValue" : 1.0,
                        "interp" : "linr"
                      },
                      "cursorOpacity" : {
                        "type" : "double",
                        "defaultValue" : 1.0,
                        "interp" : "linr"
                      }
                    },
                    "effects" : [
                        {
                          "effectName" : "LeftClickWarp",
                          "parameters" : {
                            "clickDuration" : 1.25,
                            "postClickPercent" : 100.0,
                            "radius" : 75.0,
                            "scale" : 0.5
                          }
                        },
                        {
                          "effectName" : "LeftClickSound",
                          "parameters" : {
                            "filename" : "mouse_click_single.wav",
                            "volume" : 1.0
                          }
                        }
                    ],
                    "start" : 4393,
                    "duration" : 366,
                    "mediaStart" : 28,
                    "mediaDuration" : 366,
                    "scalar" : 1,
                    "metadata" : {
                      "AutoAppliedSmartFocus" : "False",
                      "WinSubProjectDisplayName" : "",
                      "clipSpeedAttribute" : false,
                      "default-scale0" : 1.0,
                      "default-scale1" : 1.0,
                      "default-translation0" : 0.0,
                      "default-translation1" : 0.0
                    },
                    "animationTracks" : {
                      "visual" : [
                        {
                          "range" : [ 363, 30]
                        }
                      ]
                    }
                  },
                  {
                    "id" : 51,
                    "_type" : "ScreenVMFile",
                    "src" : 14,
                    "trackNumber" : 0,
                    "attributes" : {
                      "ident" : "Rec 10-28-17 34"
                    },
                    "parameters" : {
                      "translation0" : {
                        "type" : "double",
                        "defaultValue" : 1.99999999999534,
                        "interp" : "eioe",
                        "keyframes" : [
                          {
                            "time" : 363,
                            "value" : 373.168432126431,
                            "duration" : 30
                          },
                          {
                            "time" : "1233733/2674",
                            "value" : 85.6777114434092,
                            "duration" : "285/14"
                          }
                        ]
                      },
                      "translation1" : {
                        "type" : "double",
                        "defaultValue" : 0.0,
                        "interp" : "eioe",
                        "keyframes" : [
                          {
                            "time" : 363,
                            "value" : 133.253561617259,
                            "duration" : 30
                          },
                          {
                            "time" : "1233733/2674",
                            "value" : -22.499178027882,
                            "duration" : "285/14"
                          }
                        ]
                      },
                      "scale0" : {
                        "type" : "double",
                        "defaultValue" : 1.0,
                        "interp" : "eioe",
                        "keyframes" : [
                          {
                            "time" : 363,
                            "value" : 1.44769503473973,
                            "duration" : 30
                          },
                          {
                            "time" : "1233733/2674",
                            "value" : 1.10462734698507,
                            "duration" : "285/14"
                          }
                        ]
                      },
                      "scale1" : {
                        "type" : "double",
                        "defaultValue" : 1.0,
                        "interp" : "eioe",
                        "keyframes" : [
                          {
                            "time" : 363,
                            "value" : 1.44769524750584,
                            "duration" : 30
                          },
                          {
                            "time" : "1233733/2674",
                            "value" : 1.10462753517412,
                            "duration" : "285/14"
                          }
                        ]
                      },
                      "cursorScale" : {
                        "type" : "double",
                        "defaultValue" : 1.0,
                        "interp" : "linr"
                      },
                      "cursorOpacity" : {
                        "type" : "double",
                        "defaultValue" : 1.0,
                        "interp" : "linr"
                      }
                    },
                    "effects" : [
                        {
                          "effectName" : "LeftClickWarp",
                          "parameters" : {
                            "clickDuration" : 1.25,
                            "postClickPercent" : 100.0,
                            "radius" : 75.0,
                            "scale" : 0.5
                          }
                        },
                        {
                          "effectName" : "LeftClickSound",
                          "parameters" : {
                            "filename" : "mouse_click_single.wav",
                            "volume" : 1.0
                          }
                        }
                    ],
                    "start" : 4759,
                    "duration" : 191,
                    "mediaStart" : 394,
                    "mediaDuration" : 114,
                    "scalar" : "191/114",
                    "metadata" : {
                      "AutoAppliedSmartFocus" : "False",
                      "WinSubProjectDisplayName" : "",
                      "clipSpeedAttribute" : true,
                      "default-scale0" : 1.0,
                      "default-scale1" : 1.0,
                      "default-translation0" : 0.0,
                      "default-translation1" : 0.0
                    },
                    "animationTracks" : {
                      "visual" : [
                        {
                          "range" : [ 363, 30]
                        },
                        {
                          "range" : [ "1233733/2674", "285/14"]
                        }
                      ]
                    }
                  },
                  {
                    "id" : 52,
                    "_type" : "ScreenVMFile",
                    "src" : 14,
                    "trackNumber" : 0,
                    "attributes" : {
                      "ident" : "Rec 10-28-17 34"
                    },
                    "parameters" : {
                      "cursorScale" : {
                        "type" : "double",
                        "defaultValue" : 1.0,
                        "interp" : "linr"
                      },
                      "cursorOpacity" : {
                        "type" : "double",
                        "defaultValue" : 1.0,
                        "interp" : "linr"
                      }
                    },
                    "effects" : [
                        {
                          "effectName" : "LeftClickWarp",
                          "parameters" : {
                            "clickDuration" : 1.25,
                            "postClickPercent" : 100.0,
                            "radius" : 75.0,
                            "scale" : 0.5
                          }
                        },
                        {
                          "effectName" : "LeftClickSound",
                          "parameters" : {
                            "filename" : "mouse_click_single.wav",
                            "volume" : 1.0
                          }
                        }
                    ],
                    "start" : 4950,
                    "duration" : 63,
                    "mediaStart" : 637,
                    "mediaDuration" : 63,
                    "scalar" : 1,
                    "metadata" : {
                      "AutoAppliedSmartFocus" : "False",
                      "WinSubProjectDisplayName" : "",
                      "clipSpeedAttribute" : false
                    },
                    "animationTracks" : {

                    }
                  },
                  {
                    "id" : 53,
                    "_type" : "ScreenVMFile",
                    "src" : 14,
                    "trackNumber" : 0,
                    "attributes" : {
                      "ident" : "Rec 10-28-17 34"
                    },
                    "parameters" : {
                      "cursorScale" : {
                        "type" : "double",
                        "defaultValue" : 1.0,
                        "interp" : "linr"
                      },
                      "cursorOpacity" : {
                        "type" : "double",
                        "defaultValue" : 1.0,
                        "interp" : "linr"
                      }
                    },
                    "effects" : [
                        {
                          "effectName" : "LeftClickWarp",
                          "parameters" : {
                            "clickDuration" : 1.25,
                            "postClickPercent" : 100.0,
                            "radius" : 75.0,
                            "scale" : 0.5
                          }
                        },
                        {
                          "effectName" : "LeftClickSound",
                          "parameters" : {
                            "filename" : "mouse_click_single.wav",
                            "volume" : 1.0
                          }
                        }
                    ],
                    "start" : 5013,
                    "duration" : 39,
                    "mediaStart" : 1101,
                    "mediaDuration" : 39,
                    "scalar" : 1,
                    "metadata" : {
                      "AutoAppliedSmartFocus" : "False",
                      "WinSubProjectDisplayName" : "",
                      "clipSpeedAttribute" : false
                    },
                    "animationTracks" : {

                    }
                  },
                  {
                    "id" : 54,
                    "_type" : "ScreenVMFile",
                    "src" : 14,
                    "trackNumber" : 0,
                    "attributes" : {
                      "ident" : "Rec 10-28-17 34"
                    },
                    "parameters" : {
                      "cursorScale" : {
                        "type" : "double",
                        "defaultValue" : 1.0,
                        "interp" : "linr"
                      },
                      "cursorOpacity" : {
                        "type" : "double",
                        "defaultValue" : 1.0,
                        "interp" : "linr"
                      }
                    },
                    "effects" : [
                        {
                          "effectName" : "LeftClickWarp",
                          "parameters" : {
                            "clickDuration" : 1.25,
                            "postClickPercent" : 100.0,
                            "radius" : 75.0,
                            "scale" : 0.5
                          }
                        },
                        {
                          "effectName" : "LeftClickSound",
                          "parameters" : {
                            "filename" : "mouse_click_single.wav",
                            "volume" : 1.0
                          }
                        }
                    ],
                    "start" : 5052,
                    "duration" : 62,
                    "mediaStart" : 1233,
                    "mediaDuration" : 62,
                    "scalar" : 1,
                    "metadata" : {
                      "AutoAppliedSmartFocus" : "False",
                      "WinSubProjectDisplayName" : "",
                      "clipSpeedAttribute" : false
                    },
                    "animationTracks" : {

                    }
                  },
                  {
                    "id" : 55,
                    "_type" : "ScreenVMFile",
                    "src" : 14,
                    "trackNumber" : 0,
                    "attributes" : {
                      "ident" : "Rec 10-28-17 34"
                    },
                    "parameters" : {
                      "cursorScale" : {
                        "type" : "double",
                        "defaultValue" : 1.0,
                        "interp" : "linr"
                      },
                      "cursorOpacity" : {
                        "type" : "double",
                        "defaultValue" : 1.0,
                        "interp" : "linr"
                      }
                    },
                    "effects" : [
                        {
                          "effectName" : "LeftClickWarp",
                          "parameters" : {
                            "clickDuration" : 1.25,
                            "postClickPercent" : 100.0,
                            "radius" : 75.0,
                            "scale" : 0.5
                          }
                        },
                        {
                          "effectName" : "LeftClickSound",
                          "parameters" : {
                            "filename" : "mouse_click_single.wav",
                            "volume" : 1.0
                          }
                        }
                    ],
                    "start" : 5114,
                    "duration" : 115,
                    "mediaStart" : 1339,
                    "mediaDuration" : 115,
                    "scalar" : 1,
                    "metadata" : {
                      "AutoAppliedSmartFocus" : "False",
                      "WinSubProjectDisplayName" : "",
                      "clipSpeedAttribute" : false
                    },
                    "animationTracks" : {

                    }
                  },
                  {
                    "id" : 56,
                    "_type" : "ScreenVMFile",
                    "src" : 14,
                    "trackNumber" : 0,
                    "attributes" : {
                      "ident" : "Rec 10-28-17 34"
                    },
                    "parameters" : {
                      "cursorScale" : {
                        "type" : "double",
                        "defaultValue" : 1.0,
                        "interp" : "linr"
                      },
                      "cursorOpacity" : {
                        "type" : "double",
                        "defaultValue" : 1.0,
                        "interp" : "linr"
                      }
                    },
                    "effects" : [
                        {
                          "effectName" : "LeftClickWarp",
                          "parameters" : {
                            "clickDuration" : 1.25,
                            "postClickPercent" : 100.0,
                            "radius" : 75.0,
                            "scale" : 0.5
                          }
                        },
                        {
                          "effectName" : "LeftClickSound",
                          "parameters" : {
                            "filename" : "mouse_click_single.wav",
                            "volume" : 1.0
                          }
                        }
                    ],
                    "start" : 5229,
                    "duration" : 121,
                    "mediaStart" : 1491,
                    "mediaDuration" : 121,
                    "scalar" : 1,
                    "metadata" : {
                      "AutoAppliedSmartFocus" : "False",
                      "WinSubProjectDisplayName" : "",
                      "clipSpeedAttribute" : false
                    },
                    "animationTracks" : {

                    }
                  },
                  {
                    "id" : 57,
                    "_type" : "ScreenVMFile",
                    "src" : 14,
                    "trackNumber" : 0,
                    "attributes" : {
                      "ident" : "Rec 10-28-17 34"
                    },
                    "parameters" : {
                      "cursorScale" : {
                        "type" : "double",
                        "defaultValue" : 1.0,
                        "interp" : "linr"
                      },
                      "cursorOpacity" : {
                        "type" : "double",
                        "defaultValue" : 1.0,
                        "interp" : "linr"
                      }
                    },
                    "effects" : [
                        {
                          "effectName" : "LeftClickWarp",
                          "parameters" : {
                            "clickDuration" : 1.25,
                            "postClickPercent" : 100.0,
                            "radius" : 75.0,
                            "scale" : 0.5
                          }
                        },
                        {
                          "effectName" : "LeftClickSound",
                          "parameters" : {
                            "filename" : "mouse_click_single.wav",
                            "volume" : 1.0
                          }
                        }
                    ],
                    "start" : 5350,
                    "duration" : 25,
                    "mediaStart" : 1868,
                    "mediaDuration" : 25,
                    "scalar" : 1,
                    "metadata" : {
                      "AutoAppliedSmartFocus" : "False",
                      "WinSubProjectDisplayName" : "",
                      "clipSpeedAttribute" : false
                    },
                    "animationTracks" : {

                    }
                  },
                  {
                    "id" : 58,
                    "_type" : "ScreenVMFile",
                    "src" : 14,
                    "trackNumber" : 0,
                    "attributes" : {
                      "ident" : "Rec 10-28-17 34"
                    },
                    "parameters" : {
                      "cursorScale" : {
                        "type" : "double",
                        "defaultValue" : 1.0,
                        "interp" : "linr"
                      },
                      "cursorOpacity" : {
                        "type" : "double",
                        "defaultValue" : 1.0,
                        "interp" : "linr"
                      }
                    },
                    "effects" : [
                        {
                          "effectName" : "LeftClickWarp",
                          "parameters" : {
                            "clickDuration" : 1.25,
                            "postClickPercent" : 100.0,
                            "radius" : 75.0,
                            "scale" : 0.5
                          }
                        },
                        {
                          "effectName" : "LeftClickSound",
                          "parameters" : {
                            "filename" : "mouse_click_single.wav",
                            "volume" : 1.0
                          }
                        }
                    ],
                    "start" : 5375,
                    "duration" : 111,
                    "mediaStart" : 2016,
                    "mediaDuration" : 111,
                    "scalar" : 1,
                    "metadata" : {
                      "AutoAppliedSmartFocus" : "False",
                      "WinSubProjectDisplayName" : "",
                      "clipSpeedAttribute" : false
                    },
                    "animationTracks" : {

                    }
                  },
                  {
                    "id" : 59,
                    "_type" : "ScreenVMFile",
                    "src" : 14,
                    "trackNumber" : 0,
                    "attributes" : {
                      "ident" : "Rec 10-28-17 34"
                    },
                    "parameters" : {
                      "cursorScale" : {
                        "type" : "double",
                        "defaultValue" : 1.0,
                        "interp" : "linr"
                      },
                      "cursorOpacity" : {
                        "type" : "double",
                        "defaultValue" : 1.0,
                        "interp" : "linr"
                      }
                    },
                    "effects" : [
                        {
                          "effectName" : "LeftClickWarp",
                          "parameters" : {
                            "clickDuration" : 1.25,
                            "postClickPercent" : 100.0,
                            "radius" : 75.0,
                            "scale" : 0.5
                          }
                        },
                        {
                          "effectName" : "LeftClickSound",
                          "parameters" : {
                            "filename" : "mouse_click_single.wav",
                            "volume" : 1.0
                          }
                        }
                    ],
                    "start" : 5486,
                    "duration" : 103,
                    "mediaStart" : 2225,
                    "mediaDuration" : 103,
                    "scalar" : 1,
                    "metadata" : {
                      "AutoAppliedSmartFocus" : "False",
                      "WinSubProjectDisplayName" : "",
                      "clipSpeedAttribute" : false
                    },
                    "animationTracks" : {

                    }
                  }
                ],
                "transitions" : [
                  {
                    "name" : "Glow",
                    "duration" : 30,
                    "useAudioPreRoll" : true,
                    "useVisualPreRoll" : true,
                    "rightMedia" : 44
                  },
                  {
                    "name" : "Glow",
                    "duration" : 16,
                    "useAudioPreRoll" : true,
                    "useVisualPreRoll" : true,
                    "leftMedia" : 59
                  }
                ]
              },
              {
                "trackIndex" : 6,
                "medias" : [
                  {
                    "id" : 60,
                    "_type" : "Callout",
                    "def" : {
                      "kind" : "remix",
                      "shape" : "text",
                      "style" : "basic",
                      "height" : 58.5714285713943,
                      "width" : 386.666666666535,
                      "word-wrap" : 1.0,
                      "horizontal-alignment" : "center",
                      "text" : "John Can Lokman",
                      "vertical-alignment" : "center",
                      "font" : {
                        "color-blue" : 1.0,
                        "color-green" : 1.0,
                        "color-red" : 1.0,
                        "size" : 96.0,
                        "tracking" : 0.0,
                        "name" : "Montserrat",
                        "weight" : "Regular"
                      },
                      "textAttributes" : {
                        "type" : "textAttributeList",
                        "keyframes" : [
                          {
                            "time" : 0,
                            "value" : [{"name":"underline","rangeEnd":15,"rangeStart":0,"value":0,"valueType":"int"},{"name":"fontName","rangeEnd":15,"rangeStart":0,"value":"Montserrat","valueType":"string"},{"name":"fontSize","rangeEnd":15,"rangeStart":0,"value":96,"valueType":"double"},{"name":"fontItalic","rangeEnd":15,"rangeStart":0,"value":0,"valueType":"int"},{"name":"fgColor","rangeEnd":15,"rangeStart":0,"value":"(68,68,68,255)","valueType":"color"},{"name":"strikethrough","rangeEnd":15,"rangeStart":0,"value":0,"valueType":"int"},{"name":"fontWeight","rangeEnd":15,"rangeStart":0,"value":100,"valueType":"int"}],
                            "duration" : 0
                          }
                        ]
                      }
                    },
                    "attributes" : {
                      "autoRotateText" : true
                    },
                    "parameters" : {
                      "translation0" : 0.166700393638958,
                      "translation1" : -203.18560352921
                    },
                    "effects" : [
                        {
                          "effectName" : "DropShadow",
                          "parameters" : {
                            "angle" : 5.49778714378214,
                            "blur" : 10.0,
                            "color-alpha" : 1.0,
                            "color-blue" : 0.1216,
                            "color-green" : 0.1216,
                            "color-red" : 0.1216,
                            "enabled" : 1,
                            "offset" : 10.0,
                            "opacity" : 0.4
                          }
                        }
                    ],
                    "start" : 0,
                    "duration" : 78,
                    "mediaStart" : 0,
                    "mediaDuration" : 78,
                    "scalar" : 1,
                    "metadata" : {
                      "WinSubProjectDisplayName" : "",
                      "clipSpeedAttribute" : false,
                      "default-HAlign" : "center",
                      "default-VAlign" : "center",
                      "default-translation0" : 0.0,
                      "default-translation1" : 0.0
                    },
                    "animationTracks" : {

                    }
                  },
                  {
                    "id" : 61,
                    "_type" : "Callout",
                    "def" : {
                      "kind" : "remix",
                      "shape" : "text",
                      "style" : "basic",
                      "height" : 186.073937153488,
                      "width" : 471.674676524807,
                      "word-wrap" : 1.0,
                      "horizontal-alignment" : "center",
                      "text" : "The LD-R User Interface",
                      "vertical-alignment" : "center",
                      "font" : {
                        "color-blue" : 1.0,
                        "color-green" : 1.0,
                        "color-red" : 1.0,
                        "size" : 96.0,
                        "tracking" : 0.0,
                        "name" : "Montserrat",
                        "weight" : "Regular"
                      },
                      "textAttributes" : {
                        "type" : "textAttributeList",
                        "keyframes" : [
                          {
                            "time" : 0,
                            "value" : [{"name":"fontSize","rangeEnd":23,"rangeStart":0,"value":96,"valueType":"double"},{"name":"fontName","rangeEnd":23,"rangeStart":0,"value":"Montserrat","valueType":"string"},{"name":"fontItalic","rangeEnd":23,"rangeStart":0,"value":0,"valueType":"int"},{"name":"fontWeight","rangeEnd":23,"rangeStart":0,"value":700,"valueType":"int"},{"name":"strikethrough","rangeEnd":23,"rangeStart":0,"value":0,"valueType":"int"},{"name":"underline","rangeEnd":23,"rangeStart":0,"value":0,"valueType":"int"},{"name":"fgColor","rangeEnd":23,"rangeStart":0,"value":"(6,175,143,255)","valueType":"color"}],
                            "duration" : 0
                          }
                        ]
                      }
                    },
                    "attributes" : {
                      "autoRotateText" : true
                    },
                    "parameters" : {
                      "translation0" : 0.162661737492586,
                      "translation1" : 0.463031423166818
                    },
                    "effects" : [
                        {
                          "effectName" : "DropShadow",
                          "parameters" : {
                            "angle" : 5.49778714378214,
                            "blur" : 10.0,
                            "color-alpha" : 1.0,
                            "color-blue" : 0.1216,
                            "color-green" : 0.1216,
                            "color-red" : 0.1216,
                            "enabled" : 1,
                            "offset" : 10.0,
                            "opacity" : 0.4
                          }
                        }
                    ],
                    "start" : 78,
                    "duration" : 73,
                    "mediaStart" : 0,
                    "mediaDuration" : 73,
                    "scalar" : 1,
                    "metadata" : {
                      "WinSubProjectDisplayName" : "",
                      "clipSpeedAttribute" : false,
                      "default-HAlign" : "center",
                      "default-VAlign" : "center",
                      "default-translation0" : 0.0,
                      "default-translation1" : 0.0
                    },
                    "animationTracks" : {

                    }
                  },
                  {
                    "id" : 62,
                    "_type" : "Callout",
                    "def" : {
                      "kind" : "remix",
                      "shape" : "text",
                      "style" : "basic",
                      "height" : 54.3475046213258,
                      "width" : 541.412199630118,
                      "word-wrap" : 1.0,
                      "horizontal-alignment" : "center",
                      "text" : "SPARQL endpoint address",
                      "vertical-alignment" : "center",
                      "font" : {
                        "color-blue" : 1.0,
                        "color-green" : 1.0,
                        "color-red" : 1.0,
                        "size" : 96.0,
                        "tracking" : 0.0,
                        "name" : "Montserrat",
                        "weight" : "Regular"
                      },
                      "textAttributes" : {
                        "type" : "textAttributeList",
                        "keyframes" : [
                          {
                            "time" : 0,
                            "value" : [{"name":"strikethrough","rangeEnd":23,"rangeStart":0,"value":0,"valueType":"int"},{"name":"fontItalic","rangeEnd":23,"rangeStart":0,"value":0,"valueType":"int"},{"name":"fontSize","rangeEnd":23,"rangeStart":0,"value":96,"valueType":"double"},{"name":"underline","rangeEnd":23,"rangeStart":0,"value":0,"valueType":"int"},{"name":"fontName","rangeEnd":23,"rangeStart":0,"value":"Montserrat","valueType":"string"},{"name":"fgColor","rangeEnd":23,"rangeStart":0,"value":"(6,175,143,255)","valueType":"color"},{"name":"fontWeight","rangeEnd":23,"rangeStart":0,"value":700,"valueType":"int"}],
                            "duration" : 0
                          }
                        ]
                      }
                    },
                    "attributes" : {
                      "autoRotateText" : true
                    },
                    "parameters" : {
                      "translation0" : -383.391881523314,
                      "translation1" : -346.424214897749
                    },
                    "effects" : [
                        {
                          "effectName" : "DropShadow",
                          "parameters" : {
                            "angle" : 5.49778714378214,
                            "blur" : 10.0,
                            "color-alpha" : 1.0,
                            "color-blue" : 0.1216,
                            "color-green" : 0.1216,
                            "color-red" : 0.1216,
                            "enabled" : 1,
                            "offset" : 10.0,
                            "opacity" : 0.4
                          }
                        }
                    ],
                    "start" : 325,
                    "duration" : 112,
                    "mediaStart" : 183,
                    "mediaDuration" : 112,
                    "scalar" : 1,
                    "metadata" : {
                      "WinSubProjectDisplayName" : "",
                      "clipSpeedAttribute" : false,
                      "default-HAlign" : "center",
                      "default-VAlign" : "center",
                      "default-translation0" : 0.0,
                      "default-translation1" : 0.0
                    },
                    "animationTracks" : {

                    }
                  },
                  {
                    "id" : 63,
                    "_type" : "Callout",
                    "def" : {
                      "kind" : "remix",
                      "shape" : "arrow",
                      "style" : "basic",
                      "stroke-color-blue" : 0.56078431372549,
                      "stroke-color-green" : 0.686274509803922,
                      "stroke-color-opacity" : 1.0,
                      "stroke-color-red" : 0.0196078431372549,
                      "stroke-width" : 8.0,
                      "tail-x" : {
                        "type" : "double",
                        "defaultValue" : -58.8465804064156,
                        "interp" : "eioe"
                      },
                      "tail-y" : {
                        "type" : "double",
                        "defaultValue" : -108.480592307718,
                        "interp" : "eioe"
                      },
                      "horizontal-alignment" : "center",
                      "shape-anchor" : "circle",
                      "shape-tail" : "arrow",
                      "stroke-style" : "solid",
                      "vertical-alignment" : "center",
                      "textAttributes" : {
                        "type" : "textAttributeList",
                        "keyframes" : [
                          {
                            "time" : 0,
                            "value" : null,
                            "duration" : 0
                          }
                        ]
                      }
                    },
                    "attributes" : {
                      "autoRotateText" : true
                    },
                    "parameters" : {
                      "translation0" : -539.73382624852,
                      "translation1" : -302.249537082825
                    },
                    "effects" : [
                        {
                          "effectName" : "DropShadow",
                          "parameters" : {
                            "angle" : 5.49778714378214,
                            "blur" : 10.0,
                            "color-alpha" : 1.0,
                            "color-blue" : 0.1216,
                            "color-green" : 0.1216,
                            "color-red" : 0.1216,
                            "enabled" : 1,
                            "offset" : 10.0,
                            "opacity" : 0.4
                          }
                        }
                    ],
                    "start" : 716,
                    "duration" : 130,
                    "mediaStart" : 0,
                    "mediaDuration" : 130,
                    "scalar" : 1,
                    "metadata" : {
                      "WinSubProjectDisplayName" : "",
                      "clipSpeedAttribute" : false,
                      "default-translation0" : 0.0,
                      "default-translation1" : 0.0
                    },
                    "animationTracks" : {

                    }
                  },
                  {
                    "id" : 64,
                    "_type" : "Callout",
                    "def" : {
                      "kind" : "remix",
                      "shape" : "text",
                      "style" : "basic",
                      "height" : 89.2162661738043,
                      "width" : 202.410351201459,
                      "word-wrap" : 1.0,
                      "horizontal-alignment" : "left",
                      "text" : "Filtered result",
                      "vertical-alignment" : "center",
                      "font" : {
                        "color-blue" : 1.0,
                        "color-green" : 1.0,
                        "color-red" : 1.0,
                        "size" : 96.0,
                        "tracking" : 0.0,
                        "name" : "Montserrat",
                        "weight" : "Regular"
                      },
                      "textAttributes" : {
                        "type" : "textAttributeList",
                        "keyframes" : [
                          {
                            "time" : 0,
                            "value" : [{"name":"underline","rangeEnd":15,"rangeStart":0,"value":0,"valueType":"int"},{"name":"strikethrough","rangeEnd":15,"rangeStart":0,"value":0,"valueType":"int"},{"name":"fontItalic","rangeEnd":15,"rangeStart":0,"value":0,"valueType":"int"},{"name":"fontWeight","rangeEnd":15,"rangeStart":0,"value":700,"valueType":"int"},{"name":"fontName","rangeEnd":15,"rangeStart":0,"value":"Montserrat","valueType":"string"},{"name":"fgColor","rangeEnd":15,"rangeStart":0,"value":"(6,175,143,255)","valueType":"color"},{"name":"fontSize","rangeEnd":15,"rangeStart":0,"value":96,"valueType":"double"}],
                            "duration" : 0
                          }
                        ]
                      }
                    },
                    "attributes" : {
                      "autoRotateText" : true
                    },
                    "parameters" : {
                      "translation0" : 0.294826105490785,
                      "translation1" : 295.807763400916
                    },
                    "effects" : [
                        {
                          "effectName" : "DropShadow",
                          "parameters" : {
                            "angle" : 5.49778714378214,
                            "blur" : 10.0,
                            "color-alpha" : 1.0,
                            "color-blue" : 0.1216,
                            "color-green" : 0.1216,
                            "color-red" : 0.1216,
                            "enabled" : 1,
                            "offset" : 10.0,
                            "opacity" : 0.4
                          }
                        }
                    ],
                    "start" : 1027,
                    "duration" : 115,
                    "mediaStart" : 0,
                    "mediaDuration" : 115,
                    "scalar" : 1,
                    "metadata" : {
                      "WinSubProjectDisplayName" : "",
                      "clipSpeedAttribute" : false,
                      "default-HAlign" : "center",
                      "default-VAlign" : "center",
                      "default-translation0" : 0.0,
                      "default-translation1" : 0.0
                    },
                    "animationTracks" : {

                    }
                  },
                  {
                    "id" : 65,
                    "_type" : "Callout",
                    "def" : {
                      "kind" : "remix",
                      "shape" : "text",
                      "style" : "basic",
                      "height" : 141.748613678384,
                      "width" : 505.308687615537,
                      "word-wrap" : 1.0,
                      "horizontal-alignment" : "left",
                      "text" : "The data seen so far is on a local server",
                      "vertical-alignment" : "center",
                      "font" : {
                        "color-blue" : 1.0,
                        "color-green" : 1.0,
                        "color-red" : 1.0,
                        "size" : 96.0,
                        "tracking" : 0.0,
                        "name" : "Montserrat",
                        "weight" : "Regular"
                      },
                      "textAttributes" : {
                        "type" : "textAttributeList",
                        "keyframes" : [
                          {
                            "time" : 0,
                            "value" : [{"name":"strikethrough","rangeEnd":41,"rangeStart":0,"value":0,"valueType":"int"},{"name":"fontName","rangeEnd":41,"rangeStart":0,"value":"Montserrat","valueType":"string"},{"name":"fontWeight","rangeEnd":41,"rangeStart":0,"value":700,"valueType":"int"},{"name":"underline","rangeEnd":41,"rangeStart":0,"value":0,"valueType":"int"},{"name":"fgColor","rangeEnd":41,"rangeStart":0,"value":"(6,175,143,255)","valueType":"color"},{"name":"fontItalic","rangeEnd":41,"rangeStart":0,"value":0,"valueType":"int"},{"name":"fontSize","rangeEnd":41,"rangeStart":0,"value":96,"valueType":"double"}],
                            "duration" : 0
                          }
                        ]
                      }
                    },
                    "attributes" : {
                      "autoRotateText" : true
                    },
                    "parameters" : {
                      "translation0" : -87.6284658039686,
                      "translation1" : 122.651386321742
                    },
                    "effects" : [
                        {
                          "effectName" : "DropShadow",
                          "parameters" : {
                            "angle" : 5.49778714378214,
                            "blur" : 10.0,
                            "color-alpha" : 1.0,
                            "color-blue" : 0.1216,
                            "color-green" : 0.1216,
                            "color-red" : 0.1216,
                            "enabled" : 1,
                            "offset" : 10.0,
                            "opacity" : 0.4
                          }
                        }
                    ],
                    "start" : 4231,
                    "duration" : 54,
                    "mediaStart" : 0,
                    "mediaDuration" : 54,
                    "scalar" : 1,
                    "metadata" : {
                      "WinSubProjectDisplayName" : "",
                      "clipSpeedAttribute" : false,
                      "default-HAlign" : "center",
                      "default-VAlign" : "center",
                      "default-translation0" : 0.0,
                      "default-translation1" : 0.0
                    },
                    "animationTracks" : {

                    }
                  },
                  {
                    "id" : 66,
                    "_type" : "Callout",
                    "def" : {
                      "kind" : "remix",
                      "shape" : "text",
                      "style" : "basic",
                      "height" : 168.988909426944,
                      "width" : 624.709796672527,
                      "word-wrap" : 1.0,
                      "horizontal-alignment" : "left",
                      "text" : "LD-R can also query remote SPARQL endpoints",
                      "vertical-alignment" : "center",
                      "font" : {
                        "color-blue" : 1.0,
                        "color-green" : 1.0,
                        "color-red" : 1.0,
                        "size" : 96.0,
                        "tracking" : 0.0,
                        "name" : "Montserrat",
                        "weight" : "Regular"
                      },
                      "textAttributes" : {
                        "type" : "textAttributeList",
                        "keyframes" : [
                          {
                            "time" : 0,
                            "value" : [{"name":"fontSize","rangeEnd":43,"rangeStart":0,"value":96,"valueType":"double"},{"name":"fgColor","rangeEnd":43,"rangeStart":0,"value":"(6,175,143,255)","valueType":"color"},{"name":"fontWeight","rangeEnd":43,"rangeStart":0,"value":700,"valueType":"int"},{"name":"fontItalic","rangeEnd":43,"rangeStart":0,"value":0,"valueType":"int"},{"name":"underline","rangeEnd":43,"rangeStart":0,"value":0,"valueType":"int"},{"name":"strikethrough","rangeEnd":43,"rangeStart":0,"value":0,"valueType":"int"},{"name":"fontName","rangeEnd":43,"rangeStart":0,"value":"Montserrat","valueType":"string"}],
                            "duration" : 0
                          }
                        ]
                      }
                    },
                    "attributes" : {
                      "autoRotateText" : true
                    },
                    "parameters" : {
                      "translation0" : -78.3096118298965,
                      "translation1" : 127.499998716732
                    },
                    "effects" : [
                        {
                          "effectName" : "DropShadow",
                          "parameters" : {
                            "angle" : 5.49778714378214,
                            "blur" : 10.0,
                            "color-alpha" : 1.0,
                            "color-blue" : 0.1216,
                            "color-green" : 0.1216,
                            "color-red" : 0.1216,
                            "enabled" : 1,
                            "offset" : 10.0,
                            "opacity" : 0.4
                          }
                        }
                    ],
                    "start" : 4296,
                    "duration" : 97,
                    "mediaStart" : 0,
                    "mediaDuration" : 97,
                    "scalar" : 1,
                    "metadata" : {
                      "WinSubProjectDisplayName" : "",
                      "clipSpeedAttribute" : false,
                      "default-HAlign" : "center",
                      "default-VAlign" : "center",
                      "default-translation0" : 0.0,
                      "default-translation1" : 0.0
                    },
                    "animationTracks" : {

                    }
                  },
                  {
                    "id" : 67,
                    "_type" : "Callout",
                    "def" : {
                      "kind" : "remix",
                      "shape" : "text",
                      "style" : "basic",
                      "height" : 124.999999999977,
                      "width" : 742.876155267817,
                      "word-wrap" : 1.0,
                      "horizontal-alignment" : "left",
                      "text" : "A remote dataset has already been set up previously; skipping the values",
                      "vertical-alignment" : "center",
                      "font" : {
                        "color-blue" : 1.0,
                        "color-green" : 1.0,
                        "color-red" : 1.0,
                        "size" : 96.0,
                        "tracking" : 0.0,
                        "name" : "Montserrat",
                        "weight" : "Regular"
                      },
                      "textAttributes" : {
                        "type" : "textAttributeList",
                        "keyframes" : [
                          {
                            "time" : 0,
                            "value" : [{"name":"fontName","rangeEnd":72,"rangeStart":0,"value":"Montserrat","valueType":"string"},{"name":"strikethrough","rangeEnd":72,"rangeStart":0,"value":0,"valueType":"int"},{"name":"fontItalic","rangeEnd":72,"rangeStart":0,"value":0,"valueType":"int"},{"name":"underline","rangeEnd":72,"rangeStart":0,"value":0,"valueType":"int"},{"name":"fgColor","rangeEnd":72,"rangeStart":0,"value":"(6,175,143,255)","valueType":"color"},{"name":"fontWeight","rangeEnd":72,"rangeStart":0,"value":700,"valueType":"int"},{"name":"fontSize","rangeEnd":72,"rangeStart":0,"value":96,"valueType":"double"}],
                            "duration" : 0
                          }
                        ]
                      }
                    },
                    "attributes" : {
                      "autoRotateText" : true
                    },
                    "parameters" : {
                      "translation0" : 38.8049907578806,
                      "translation1" : 321.567467652443
                    },
                    "effects" : [
                        {
                          "effectName" : "DropShadow",
                          "parameters" : {
                            "angle" : 5.49778714378214,
                            "blur" : 10.0,
                            "color-alpha" : 1.0,
                            "color-blue" : 0.1216,
                            "color-green" : 0.1216,
                            "color-red" : 0.1216,
                            "enabled" : 1,
                            "offset" : 10.0,
                            "opacity" : 0.4
                          }
                        }
                    ],
                    "start" : 4540,
                    "duration" : 150,
                    "mediaStart" : 0,
                    "mediaDuration" : 150,
                    "scalar" : 1,
                    "metadata" : {
                      "WinSubProjectDisplayName" : "",
                      "clipSpeedAttribute" : false,
                      "default-HAlign" : "center",
                      "default-VAlign" : "center",
                      "default-translation0" : 0.0,
                      "default-translation1" : 0.0
                    },
                    "animationTracks" : {

                    }
                  },
                  {
                    "id" : 68,
                    "_type" : "Callout",
                    "def" : {
                      "kind" : "remix",
                      "shape" : "text",
                      "style" : "basic",
                      "height" : 122.147874306807,
                      "width" : 573.1684321264,
                      "word-wrap" : 1.0,
                      "horizontal-alignment" : "center",
                      "text" : "The remote dataset",
                      "vertical-alignment" : "center",
                      "font" : {
                        "color-blue" : 1.0,
                        "color-green" : 1.0,
                        "color-red" : 1.0,
                        "size" : 96.0,
                        "tracking" : 0.0,
                        "name" : "Montserrat",
                        "weight" : "Regular"
                      },
                      "textAttributes" : {
                        "type" : "textAttributeList",
                        "keyframes" : [
                          {
                            "time" : 0,
                            "value" : [{"name":"underline","rangeEnd":18,"rangeStart":0,"value":0,"valueType":"int"},{"name":"fgColor","rangeEnd":18,"rangeStart":0,"value":"(6,175,143,255)","valueType":"color"},{"name":"fontItalic","rangeEnd":18,"rangeStart":0,"value":0,"valueType":"int"},{"name":"fontSize","rangeEnd":18,"rangeStart":0,"value":96,"valueType":"double"},{"name":"strikethrough","rangeEnd":18,"rangeStart":0,"value":0,"valueType":"int"},{"name":"fontWeight","rangeEnd":18,"rangeStart":0,"value":700,"valueType":"int"},{"name":"fontName","rangeEnd":18,"rangeStart":0,"value":"Montserrat","valueType":"string"}],
                            "duration" : 0
                          }
                        ]
                      }
                    },
                    "attributes" : {
                      "autoRotateText" : true
                    },
                    "parameters" : {
                      "translation0" : 373.584216063181,
                      "translation1" : 416.860443622954
                    },
                    "effects" : [
                        {
                          "effectName" : "DropShadow",
                          "parameters" : {
                            "angle" : 5.49778714378214,
                            "blur" : 10.0,
                            "color-alpha" : 1.0,
                            "color-blue" : 0.1216,
                            "color-green" : 0.1216,
                            "color-red" : 0.1216,
                            "enabled" : 1,
                            "offset" : 10.0,
                            "opacity" : 0.4
                          }
                        }
                    ],
                    "start" : 4757,
                    "duration" : 59,
                    "mediaStart" : 0,
                    "mediaDuration" : 59,
                    "scalar" : 1,
                    "metadata" : {
                      "WinSubProjectDisplayName" : "",
                      "clipSpeedAttribute" : false,
                      "default-HAlign" : "center",
                      "default-VAlign" : "center",
                      "default-translation0" : 0.0,
                      "default-translation1" : 0.0
                    },
                    "animationTracks" : {

                    }
                  },
                  {
                    "id" : 69,
                    "_type" : "Callout",
                    "def" : {
                      "kind" : "remix",
                      "shape" : "text",
                      "style" : "basic",
                      "height" : 48.5360443625296,
                      "width" : 332.199630313802,
                      "word-wrap" : 1.0,
                      "horizontal-alignment" : "center",
                      "text" : "Querying DBpedia",
                      "vertical-alignment" : "center",
                      "font" : {
                        "color-blue" : 1.0,
                        "color-green" : 1.0,
                        "color-red" : 1.0,
                        "size" : 96.0,
                        "tracking" : 0.0,
                        "name" : "Montserrat",
                        "weight" : "Regular"
                      },
                      "textAttributes" : {
                        "type" : "textAttributeList",
                        "keyframes" : [
                          {
                            "time" : 0,
                            "value" : [{"name":"fontItalic","rangeEnd":16,"rangeStart":0,"value":0,"valueType":"int"},{"name":"underline","rangeEnd":16,"rangeStart":0,"value":0,"valueType":"int"},{"name":"strikethrough","rangeEnd":16,"rangeStart":0,"value":0,"valueType":"int"},{"name":"fgColor","rangeEnd":16,"rangeStart":0,"value":"(6,175,143,255)","valueType":"color"},{"name":"fontWeight","rangeEnd":16,"rangeStart":0,"value":700,"valueType":"int"},{"name":"fontSize","rangeEnd":16,"rangeStart":0,"value":96,"valueType":"double"},{"name":"fontName","rangeEnd":16,"rangeStart":0,"value":"Montserrat","valueType":"string"}],
                            "duration" : 0
                          }
                        ]
                      }
                    },
                    "attributes" : {
                      "autoRotateText" : true
                    },
                    "parameters" : {
                      "translation0" : -638.568397395042,
                      "translation1" : 171.723659888681
                    },
                    "effects" : [
                        {
                          "effectName" : "DropShadow",
                          "parameters" : {
                            "angle" : 5.49778714378214,
                            "blur" : 10.0,
                            "color-alpha" : 1.0,
                            "color-blue" : 0.1216,
                            "color-green" : 0.1216,
                            "color-red" : 0.1216,
                            "enabled" : 1,
                            "offset" : 10.0,
                            "opacity" : 0.4
                          }
                        }
                    ],
                    "start" : 4994,
                    "duration" : 150,
                    "mediaStart" : 0,
                    "mediaDuration" : 150,
                    "scalar" : 1,
                    "metadata" : {
                      "WinSubProjectDisplayName" : "",
                      "clipSpeedAttribute" : false,
                      "default-HAlign" : "center",
                      "default-VAlign" : "center",
                      "default-translation0" : 0.0,
                      "default-translation1" : 0.0
                    },
                    "animationTracks" : {

                    }
                  }
                ],
                "transitions" : [
                  {
                    "name" : "Glow",
                    "duration" : 5,
                    "useAudioPreRoll" : true,
                    "useVisualPreRoll" : true,
                    "leftMedia" : 60,
                    "rightMedia" : 61
                  }
                ]
              },
              {
                "trackIndex" : 7,
                "medias" : [
                  {
                    "id" : 70,
                    "_type" : "Callout",
                    "def" : {
                      "kind" : "remix",
                      "shape" : "arrow",
                      "style" : "basic",
                      "stroke-color-blue" : 0.56078431372549,
                      "stroke-color-green" : 0.686274509803922,
                      "stroke-color-opacity" : 1.0,
                      "stroke-color-red" : 0.0235294117647059,
                      "stroke-width" : 8.0,
                      "tail-x" : {
                        "type" : "double",
                        "defaultValue" : -51.205175600782,
                        "interp" : "eioe"
                      },
                      "tail-y" : {
                        "type" : "double",
                        "defaultValue" : -90.0240295746803,
                        "interp" : "eioe"
                      },
                      "horizontal-alignment" : "center",
                      "shape-anchor" : "none",
                      "shape-tail" : "arrow",
                      "stroke-style" : "solid",
                      "vertical-alignment" : "center",
                      "textAttributes" : {
                        "type" : "textAttributeList",
                        "keyframes" : [
                          {
                            "time" : 0,
                            "value" : null,
                            "duration" : 0
                          }
                        ]
                      }
                    },
                    "attributes" : {
                      "autoRotateText" : true
                    },
                    "parameters" : {
                      "translation0" : -654.391866913292,
                      "translation1" : -373.924214418015
                    },
                    "effects" : [
                        {
                          "effectName" : "DropShadow",
                          "parameters" : {
                            "angle" : 5.49778714378214,
                            "blur" : 10.0,
                            "color-alpha" : 1.0,
                            "color-blue" : 0.1216,
                            "color-green" : 0.1216,
                            "color-red" : 0.1216,
                            "enabled" : 1,
                            "offset" : 10.0,
                            "opacity" : 0.4
                          }
                        }
                    ],
                    "start" : 325,
                    "duration" : 112,
                    "mediaStart" : 183,
                    "mediaDuration" : 112,
                    "scalar" : 1,
                    "metadata" : {
                      "WinSubProjectDisplayName" : "",
                      "clipSpeedAttribute" : false,
                      "default-stroke-color-red" : 0.0196078431372549,
                      "default-translation0" : 0.0,
                      "default-translation1" : 0.0
                    },
                    "animationTracks" : {

                    }
                  },
                  {
                    "id" : 71,
                    "_type" : "Callout",
                    "def" : {
                      "kind" : "remix",
                      "shape" : "text",
                      "style" : "basic",
                      "height" : 294.171904117662,
                      "width" : 1006.88724584071,
                      "word-wrap" : 1.0,
                      "horizontal-alignment" : "center",
                      "text" : "Querying...",
                      "vertical-alignment" : "center",
                      "font" : {
                        "color-blue" : 1.0,
                        "color-green" : 1.0,
                        "color-red" : 1.0,
                        "size" : 96.0,
                        "tracking" : 0.0,
                        "name" : "Montserrat",
                        "weight" : "Regular"
                      },
                      "textAttributes" : {
                        "type" : "textAttributeList",
                        "keyframes" : [
                          {
                            "time" : 0,
                            "value" : [{"name":"strikethrough","rangeEnd":11,"rangeStart":0,"value":0,"valueType":"int"},{"name":"fontSize","rangeEnd":11,"rangeStart":0,"value":96,"valueType":"double"},{"name":"fontItalic","rangeEnd":11,"rangeStart":0,"value":0,"valueType":"int"},{"name":"fontName","rangeEnd":11,"rangeStart":0,"value":"Montserrat","valueType":"string"},{"name":"fgColor","rangeEnd":11,"rangeStart":0,"value":"(6,175,143,255)","valueType":"color"},{"name":"underline","rangeEnd":11,"rangeStart":0,"value":0,"valueType":"int"},{"name":"fontWeight","rangeEnd":11,"rangeStart":0,"value":700,"valueType":"int"}],
                            "duration" : 0
                          }
                        ]
                      }
                    },
                    "attributes" : {
                      "autoRotateText" : true
                    },
                    "parameters" : {
                      "translation0" : -152.082270032811,
                      "translation1" : 20.4140479412214
                    },
                    "effects" : [
                        {
                          "effectName" : "DropShadow",
                          "parameters" : {
                            "angle" : 5.49778714378214,
                            "blur" : 10.0,
                            "color-alpha" : 1.0,
                            "color-blue" : 0.1216,
                            "color-green" : 0.1216,
                            "color-red" : 0.1216,
                            "enabled" : 1,
                            "offset" : 10.0,
                            "opacity" : 0.4
                          }
                        }
                    ],
                    "start" : 594,
                    "duration" : 295,
                    "mediaStart" : -288,
                    "mediaDuration" : 295,
                    "scalar" : 1,
                    "metadata" : {
                      "WinSubProjectDisplayName" : "",
                      "clipSpeedAttribute" : false,
                      "default-HAlign" : "center",
                      "default-VAlign" : "center",
                      "default-translation0" : 0.0,
                      "default-translation1" : 0.0
                    },
                    "animationTracks" : {

                    }
                  },
                  {
                    "id" : 72,
                    "_type" : "Callout",
                    "def" : {
                      "kind" : "remix",
                      "shape" : "arrow",
                      "style" : "basic",
                      "stroke-color-blue" : 0.56078431372549,
                      "stroke-color-green" : 0.686274509803922,
                      "stroke-color-opacity" : 1.0,
                      "stroke-color-red" : 0.0196078431372549,
                      "stroke-width" : 8.0,
                      "tail-x" : {
                        "type" : "double",
                        "defaultValue" : -105.338262477184,
                        "interp" : "eioe"
                      },
                      "tail-y" : {
                        "type" : "double",
                        "defaultValue" : 1.93715341957319,
                        "interp" : "eioe"
                      },
                      "horizontal-alignment" : "center",
                      "shape-anchor" : "none",
                      "shape-tail" : "arrow",
                      "stroke-style" : "solid",
                      "vertical-alignment" : "center",
                      "textAttributes" : {
                        "type" : "textAttributeList",
                        "keyframes" : [
                          {
                            "time" : 0,
                            "value" : null,
                            "duration" : 0
                          }
                        ]
                      }
                    },
                    "attributes" : {
                      "autoRotateText" : true
                    },
                    "parameters" : {
                      "translation0" : -101.205175600814,
                      "translation1" : 293.478743068302
                    },
                    "effects" : [
                        {
                          "effectName" : "DropShadow",
                          "parameters" : {
                            "angle" : 5.49778714378214,
                            "blur" : 10.0,
                            "color-alpha" : 1.0,
                            "color-blue" : 0.1216,
                            "color-green" : 0.1216,
                            "color-red" : 0.1216,
                            "enabled" : 1,
                            "offset" : 10.0,
                            "opacity" : 0.4
                          }
                        }
                    ],
                    "start" : 1027,
                    "duration" : 115,
                    "mediaStart" : 0,
                    "mediaDuration" : 115,
                    "scalar" : 1,
                    "metadata" : {
                      "WinSubProjectDisplayName" : "",
                      "clipSpeedAttribute" : false,
                      "default-translation0" : 0.0,
                      "default-translation1" : 0.0
                    },
                    "animationTracks" : {

                    }
                  },
                  {
                    "id" : 73,
                    "_type" : "Callout",
                    "def" : {
                      "kind" : "remix",
                      "shape" : "arrow",
                      "style" : "basic",
                      "stroke-color-blue" : 0.56078431372549,
                      "stroke-color-green" : 0.686274509803922,
                      "stroke-color-opacity" : 1.0,
                      "stroke-color-red" : 0.0196078431372549,
                      "stroke-width" : 8.0,
                      "tail-x" : {
                        "type" : "double",
                        "defaultValue" : 283.999999999733,
                        "interp" : "eioe"
                      },
                      "tail-y" : {
                        "type" : "double",
                        "defaultValue" : -46.4000000001518,
                        "interp" : "eioe"
                      },
                      "horizontal-alignment" : "center",
                      "shape-anchor" : "none",
                      "shape-tail" : "arrow",
                      "stroke-style" : "solid",
                      "vertical-alignment" : "center",
                      "textAttributes" : {
                        "type" : "textAttributeList",
                        "keyframes" : [
                          {
                            "time" : 0,
                            "value" : null,
                            "duration" : 0
                          }
                        ]
                      }
                    },
                    "attributes" : {
                      "autoRotateText" : true
                    },
                    "parameters" : {
                      "translation0" : -643.999999999659,
                      "translation1" : 193.400000000194
                    },
                    "effects" : [
                        {
                          "effectName" : "DropShadow",
                          "parameters" : {
                            "angle" : 5.49778714378214,
                            "blur" : 10.0,
                            "color-alpha" : 1.0,
                            "color-blue" : 0.1216,
                            "color-green" : 0.1216,
                            "color-red" : 0.1216,
                            "enabled" : 1,
                            "offset" : 10.0,
                            "opacity" : 0.4
                          }
                        }
                    ],
                    "start" : 4231,
                    "duration" : 54,
                    "mediaStart" : 0,
                    "mediaDuration" : 54,
                    "scalar" : 1,
                    "metadata" : {
                      "WinSubProjectDisplayName" : "",
                      "clipSpeedAttribute" : false,
                      "default-translation0" : 0.0,
                      "default-translation1" : 0.0
                    },
                    "animationTracks" : {

                    }
                  },
                  {
                    "id" : 74,
                    "_type" : "Callout",
                    "def" : {
                      "kind" : "remix",
                      "shape" : "arrow",
                      "style" : "basic",
                      "stroke-color-blue" : 0.56078431372549,
                      "stroke-color-green" : 0.686274509803922,
                      "stroke-color-opacity" : 1.0,
                      "stroke-color-red" : 0.0196078431372549,
                      "stroke-width" : 8.0,
                      "tail-x" : {
                        "type" : "double",
                        "defaultValue" : -552.820702402844,
                        "interp" : "eioe"
                      },
                      "tail-y" : {
                        "type" : "double",
                        "defaultValue" : 61.07393715342,
                        "interp" : "eioe"
                      },
                      "horizontal-alignment" : "center",
                      "shape-anchor" : "none",
                      "shape-tail" : "arrow",
                      "stroke-style" : "solid",
                      "vertical-alignment" : "center",
                      "textAttributes" : {
                        "type" : "textAttributeList",
                        "keyframes" : [
                          {
                            "time" : 0,
                            "value" : null,
                            "duration" : 0
                          }
                        ]
                      }
                    },
                    "attributes" : {
                      "autoRotateText" : true
                    },
                    "parameters" : {
                      "translation0" : 64.2920517558483,
                      "translation1" : 416.434380776334
                    },
                    "effects" : [
                        {
                          "effectName" : "DropShadow",
                          "parameters" : {
                            "angle" : 5.49778714378214,
                            "blur" : 10.0,
                            "color-alpha" : 1.0,
                            "color-blue" : 0.1216,
                            "color-green" : 0.1216,
                            "color-red" : 0.1216,
                            "enabled" : 1,
                            "offset" : 10.0,
                            "opacity" : 0.4
                          }
                        }
                    ],
                    "start" : 4758,
                    "duration" : 59,
                    "mediaStart" : 0,
                    "mediaDuration" : 59,
                    "scalar" : 1,
                    "metadata" : {
                      "WinSubProjectDisplayName" : "",
                      "clipSpeedAttribute" : false,
                      "default-translation0" : 0.0,
                      "default-translation1" : 0.0
                    },
                    "animationTracks" : {

                    }
                  }
                ]
              },
              {
                "trackIndex" : 8,
                "medias" : [
                  {
                    "id" : 75,
                    "_type" : "Callout",
                    "def" : {
                      "kind" : "remix",
                      "shape" : "text",
                      "style" : "basic",
                      "height" : 87.999999999917,
                      "width" : 876.000000000145,
                      "word-wrap" : 1.0,
                      "horizontal-alignment" : "center",
                      "text" : "A remote SPARQL endpoint (DBpedia - Virtuoso)",
                      "vertical-alignment" : "center",
                      "font" : {
                        "color-blue" : 1.0,
                        "color-green" : 1.0,
                        "color-red" : 1.0,
                        "size" : 96.0,
                        "tracking" : 0.0,
                        "name" : "Montserrat",
                        "weight" : "Regular"
                      },
                      "textAttributes" : {
                        "type" : "textAttributeList",
                        "keyframes" : [
                          {
                            "time" : 0,
                            "value" : [{"name":"fontSize","rangeEnd":45,"rangeStart":0,"value":96,"valueType":"double"},{"name":"fontWeight","rangeEnd":45,"rangeStart":0,"value":700,"valueType":"int"},{"name":"fgColor","rangeEnd":45,"rangeStart":0,"value":"(6,175,143,255)","valueType":"color"},{"name":"strikethrough","rangeEnd":45,"rangeStart":0,"value":0,"valueType":"int"},{"name":"fontItalic","rangeEnd":45,"rangeStart":0,"value":0,"valueType":"int"},{"name":"underline","rangeEnd":45,"rangeStart":0,"value":0,"valueType":"int"},{"name":"fontName","rangeEnd":45,"rangeStart":0,"value":"Montserrat","valueType":"string"}],
                            "duration" : 0
                          }
                        ]
                      }
                    },
                    "attributes" : {
                      "autoRotateText" : true
                    },
                    "parameters" : {
                      "translation0" : -62.0000000000099,
                      "translation1" : 246.00000000014
                    },
                    "effects" : [
                        {
                          "effectName" : "DropShadow",
                          "parameters" : {
                            "angle" : 5.49778714378214,
                            "blur" : 10.0,
                            "color-alpha" : 1.0,
                            "color-blue" : 0.1216,
                            "color-green" : 0.1216,
                            "color-red" : 0.1216,
                            "enabled" : 1,
                            "offset" : 10.0,
                            "opacity" : 0.4
                          }
                        }
                    ],
                    "start" : 271,
                    "duration" : 220,
                    "mediaStart" : 90,
                    "mediaDuration" : 220,
                    "scalar" : 1,
                    "metadata" : {
                      "WinSubProjectDisplayName" : "",
                      "clipSpeedAttribute" : false,
                      "default-HAlign" : "center",
                      "default-VAlign" : "center",
                      "default-translation0" : 0.0,
                      "default-translation1" : 0.0
                    },
                    "animationTracks" : {

                    }
                  },
                  {
                    "id" : 76,
                    "_type" : "Callout",
                    "def" : {
                      "kind" : "remix",
                      "shape" : "text",
                      "style" : "basic",
                      "height" : 152.120147874376,
                      "width" : 217.412184680744,
                      "word-wrap" : 1.0,
                      "horizontal-alignment" : "right",
                      "text" : "Entity search",
                      "vertical-alignment" : "center",
                      "font" : {
                        "color-blue" : 1.0,
                        "color-green" : 1.0,
                        "color-red" : 1.0,
                        "size" : 96.0,
                        "tracking" : 0.0,
                        "name" : "Montserrat",
                        "weight" : "Regular"
                      },
                      "textAttributes" : {
                        "type" : "textAttributeList",
                        "keyframes" : [
                          {
                            "time" : 0,
                            "value" : [{"name":"fgColor","rangeEnd":13,"rangeStart":0,"value":"(6,175,143,255)","valueType":"color"},{"name":"fontSize","rangeEnd":13,"rangeStart":0,"value":96,"valueType":"double"},{"name":"underline","rangeEnd":13,"rangeStart":0,"value":0,"valueType":"int"},{"name":"fontItalic","rangeEnd":13,"rangeStart":0,"value":0,"valueType":"int"},{"name":"fontName","rangeEnd":13,"rangeStart":0,"value":"Montserrat","valueType":"string"},{"name":"strikethrough","rangeEnd":13,"rangeStart":0,"value":0,"valueType":"int"},{"name":"fontWeight","rangeEnd":13,"rangeStart":0,"value":700,"valueType":"int"}],
                            "duration" : 0
                          }
                        ]
                      }
                    },
                    "attributes" : {
                      "autoRotateText" : true
                    },
                    "parameters" : {
                      "translation0" : -552.515711645008,
                      "translation1" : 76.4999999153408
                    },
                    "effects" : [
                        {
                          "effectName" : "DropShadow",
                          "parameters" : {
                            "angle" : 5.49778714378214,
                            "blur" : 10.0,
                            "color-alpha" : 1.0,
                            "color-blue" : 0.1216,
                            "color-green" : 0.1216,
                            "color-red" : 0.1216,
                            "enabled" : 1,
                            "offset" : 10.0,
                            "opacity" : 0.4
                          }
                        }
                    ],
                    "start" : 846,
                    "duration" : 126,
                    "mediaStart" : 20,
                    "mediaDuration" : 126,
                    "scalar" : 1,
                    "metadata" : {
                      "WinSubProjectDisplayName" : "",
                      "clipSpeedAttribute" : false,
                      "default-HAlign" : "center",
                      "default-VAlign" : "center",
                      "default-translation0" : 0.0,
                      "default-translation1" : 0.0
                    },
                    "animationTracks" : {

                    }
                  },
                  {
                    "id" : 77,
                    "_type" : "Callout",
                    "def" : {
                      "kind" : "remix",
                      "shape" : "text",
                      "style" : "basic",
                      "height" : 152.120147874376,
                      "width" : 217.412184680744,
                      "word-wrap" : 1.0,
                      "horizontal-alignment" : "right",
                      "text" : "Entity search",
                      "vertical-alignment" : "center",
                      "font" : {
                        "color-blue" : 1.0,
                        "color-green" : 1.0,
                        "color-red" : 1.0,
                        "size" : 96.0,
                        "tracking" : 0.0,
                        "name" : "Montserrat",
                        "weight" : "Regular"
                      },
                      "textAttributes" : {
                        "type" : "textAttributeList",
                        "keyframes" : [
                          {
                            "time" : 0,
                            "value" : [{"name":"fgColor","rangeEnd":13,"rangeStart":0,"value":"(6,175,143,255)","valueType":"color"},{"name":"fontSize","rangeEnd":13,"rangeStart":0,"value":96,"valueType":"double"},{"name":"underline","rangeEnd":13,"rangeStart":0,"value":0,"valueType":"int"},{"name":"fontItalic","rangeEnd":13,"rangeStart":0,"value":0,"valueType":"int"},{"name":"fontName","rangeEnd":13,"rangeStart":0,"value":"Montserrat","valueType":"string"},{"name":"strikethrough","rangeEnd":13,"rangeStart":0,"value":0,"valueType":"int"},{"name":"fontWeight","rangeEnd":13,"rangeStart":0,"value":700,"valueType":"int"}],
                            "duration" : 0
                          }
                        ]
                      }
                    },
                    "attributes" : {
                      "autoRotateText" : true
                    },
                    "parameters" : {
                      "translation0" : -552.515711150939,
                      "translation1" : 202.414972188861
                    },
                    "effects" : [
                        {
                          "effectName" : "DropShadow",
                          "parameters" : {
                            "angle" : 5.49778714378214,
                            "blur" : 10.0,
                            "color-alpha" : 1.0,
                            "color-blue" : 0.1216,
                            "color-green" : 0.1216,
                            "color-red" : 0.1216,
                            "enabled" : 1,
                            "offset" : 10.0,
                            "opacity" : 0.4
                          }
                        }
                    ],
                    "start" : 972,
                    "duration" : 46,
                    "mediaStart" : 20,
                    "mediaDuration" : 46,
                    "scalar" : 1,
                    "metadata" : {
                      "WinSubProjectDisplayName" : "",
                      "clipSpeedAttribute" : false,
                      "default-HAlign" : "center",
                      "default-VAlign" : "center",
                      "default-translation0" : 0.0,
                      "default-translation1" : 0.0
                    },
                    "animationTracks" : {

                    }
                  },
                  {
                    "id" : 78,
                    "_type" : "Callout",
                    "def" : {
                      "kind" : "remix",
                      "shape" : "text",
                      "style" : "basic",
                      "height" : 122.147874306807,
                      "width" : 573.1684321264,
                      "word-wrap" : 1.0,
                      "horizontal-alignment" : "left",
                      "text" : "Remote SPARQL endpoint address",
                      "vertical-alignment" : "center",
                      "font" : {
                        "color-blue" : 1.0,
                        "color-green" : 1.0,
                        "color-red" : 1.0,
                        "size" : 96.0,
                        "tracking" : 0.0,
                        "name" : "Montserrat",
                        "weight" : "Regular"
                      },
                      "textAttributes" : {
                        "type" : "textAttributeList",
                        "keyframes" : [
                          {
                            "time" : 0,
                            "value" : [{"name":"fontSize","rangeEnd":30,"rangeStart":0,"value":96,"valueType":"double"},{"name":"strikethrough","rangeEnd":30,"rangeStart":0,"value":0,"valueType":"int"},{"name":"fontItalic","rangeEnd":30,"rangeStart":0,"value":0,"valueType":"int"},{"name":"fgColor","rangeEnd":30,"rangeStart":0,"value":"(6,175,143,255)","valueType":"color"},{"name":"fontWeight","rangeEnd":30,"rangeStart":0,"value":700,"valueType":"int"},{"name":"fontName","rangeEnd":30,"rangeStart":0,"value":"Montserrat","valueType":"string"},{"name":"underline","rangeEnd":30,"rangeStart":0,"value":0,"valueType":"int"}],
                            "duration" : 0
                          }
                        ]
                      }
                    },
                    "attributes" : {
                      "autoRotateText" : true
                    },
                    "parameters" : {
                      "translation0" : 132.508205378325,
                      "translation1" : -276.533272410245
                    },
                    "effects" : [
                        {
                          "effectName" : "DropShadow",
                          "parameters" : {
                            "angle" : 5.49778714378214,
                            "blur" : 10.0,
                            "color-alpha" : 1.0,
                            "color-blue" : 0.1216,
                            "color-green" : 0.1216,
                            "color-red" : 0.1216,
                            "enabled" : 1,
                            "offset" : 10.0,
                            "opacity" : 0.4
                          }
                        }
                    ],
                    "start" : 4816,
                    "duration" : 55,
                    "mediaStart" : 24,
                    "mediaDuration" : 55,
                    "scalar" : 1,
                    "metadata" : {
                      "WinSubProjectDisplayName" : "",
                      "clipSpeedAttribute" : false,
                      "default-HAlign" : "center",
                      "default-VAlign" : "center",
                      "default-translation0" : 0.0,
                      "default-translation1" : 0.0
                    },
                    "animationTracks" : {

                    }
                  }
                ]
              },
              {
                "trackIndex" : 9,
                "medias" : [
                  {
                    "id" : 79,
                    "_type" : "Callout",
                    "def" : {
                      "kind" : "remix",
                      "shape" : "text",
                      "style" : "basic",
                      "height" : 53.999999999941,
                      "width" : 722.000000000314,
                      "word-wrap" : 1.0,
                      "horizontal-alignment" : "center",
                      "text" : "A local SPARQL endpoint (Stardog)",
                      "vertical-alignment" : "center",
                      "font" : {
                        "color-blue" : 1.0,
                        "color-green" : 1.0,
                        "color-red" : 1.0,
                        "size" : 96.0,
                        "tracking" : 0.0,
                        "name" : "Montserrat",
                        "weight" : "Regular"
                      },
                      "textAttributes" : {
                        "type" : "textAttributeList",
                        "keyframes" : [
                          {
                            "time" : 0,
                            "value" : [{"name":"strikethrough","rangeEnd":33,"rangeStart":0,"value":0,"valueType":"int"},{"name":"fontName","rangeEnd":33,"rangeStart":0,"value":"Montserrat","valueType":"string"},{"name":"fgColor","rangeEnd":33,"rangeStart":0,"value":"(6,175,143,255)","valueType":"color"},{"name":"underline","rangeEnd":33,"rangeStart":0,"value":0,"valueType":"int"},{"name":"fontItalic","rangeEnd":33,"rangeStart":0,"value":0,"valueType":"int"},{"name":"fontWeight","rangeEnd":33,"rangeStart":0,"value":700,"valueType":"int"},{"name":"fontSize","rangeEnd":33,"rangeStart":0,"value":96,"valueType":"double"}],
                            "duration" : 0
                          }
                        ]
                      }
                    },
                    "attributes" : {
                      "autoRotateText" : true
                    },
                    "parameters" : {
                      "translation0" : -57.00000000021,
                      "translation1" : 115.000000000021
                    },
                    "effects" : [
                        {
                          "effectName" : "DropShadow",
                          "parameters" : {
                            "angle" : 5.49778714378214,
                            "blur" : 10.0,
                            "color-alpha" : 1.0,
                            "color-blue" : 0.1216,
                            "color-green" : 0.1216,
                            "color-red" : 0.1216,
                            "enabled" : 1,
                            "offset" : 10.0,
                            "opacity" : 0.4
                          }
                        }
                    ],
                    "start" : 196,
                    "duration" : 295,
                    "mediaStart" : 15,
                    "mediaDuration" : 295,
                    "scalar" : 1,
                    "metadata" : {
                      "WinSubProjectDisplayName" : "",
                      "clipSpeedAttribute" : false,
                      "default-HAlign" : "center",
                      "default-VAlign" : "center",
                      "default-translation0" : 0.0,
                      "default-translation1" : 0.0
                    },
                    "animationTracks" : {

                    }
                  },
                  {
                    "id" : 80,
                    "_type" : "Callout",
                    "def" : {
                      "kind" : "remix",
                      "shape" : "arrow",
                      "style" : "basic",
                      "stroke-color-blue" : 0.56078431372549,
                      "stroke-color-green" : 0.686274509803922,
                      "stroke-color-opacity" : 1.0,
                      "stroke-color-red" : 0.0196078431372549,
                      "stroke-width" : 8.0,
                      "tail-x" : {
                        "type" : "double",
                        "defaultValue" : -161.515711645191,
                        "interp" : "eioe"
                      },
                      "tail-y" : {
                        "type" : "double",
                        "defaultValue" : -135.600739371628,
                        "interp" : "eioe"
                      },
                      "horizontal-alignment" : "center",
                      "shape-anchor" : "none",
                      "shape-tail" : "arrow",
                      "stroke-style" : "solid",
                      "vertical-alignment" : "center",
                      "textAttributes" : {
                        "type" : "textAttributeList",
                        "keyframes" : [
                          {
                            "time" : 0,
                            "value" : null,
                            "duration" : 0
                          }
                        ]
                      }
                    },
                    "attributes" : {
                      "autoRotateText" : true
                    },
                    "parameters" : {
                      "translation0" : -179.674789076389,
                      "translation1" : -338.033271719142
                    },
                    "effects" : [
                        {
                          "effectName" : "DropShadow",
                          "parameters" : {
                            "angle" : 5.49778714378214,
                            "blur" : 10.0,
                            "color-alpha" : 1.0,
                            "color-blue" : 0.1216,
                            "color-green" : 0.1216,
                            "color-red" : 0.1216,
                            "enabled" : 1,
                            "offset" : 10.0,
                            "opacity" : 0.4
                          }
                        }
                    ],
                    "start" : 4816,
                    "duration" : 55,
                    "mediaStart" : 24,
                    "mediaDuration" : 55,
                    "scalar" : 1,
                    "metadata" : {
                      "WinSubProjectDisplayName" : "",
                      "clipSpeedAttribute" : false,
                      "default-translation0" : 0.0,
                      "default-translation1" : 0.0
                    },
                    "animationTracks" : {

                    }
                  }
                ]
              },
              {
                "trackIndex" : 10,
                "medias" : [
                  {
                    "id" : 81,
                    "_type" : "Callout",
                    "def" : {
                      "kind" : "remix",
                      "shape" : "arrow",
                      "style" : "basic",
                      "stroke-color-blue" : 0.56078431372549,
                      "stroke-color-green" : 0.686274509803922,
                      "stroke-color-opacity" : 1.0,
                      "stroke-color-red" : 0.0196078431372549,
                      "stroke-width" : 8.0,
                      "tail-x" : {
                        "type" : "double",
                        "defaultValue" : -95.9999999999966,
                        "interp" : "eioe"
                      },
                      "tail-y" : {
                        "type" : "double",
                        "defaultValue" : -21.9999999999689,
                        "interp" : "eioe"
                      },
                      "horizontal-alignment" : "center",
                      "shape-anchor" : "none",
                      "shape-tail" : "arrow",
                      "stroke-style" : "solid",
                      "vertical-alignment" : "center",
                      "textAttributes" : {
                        "type" : "textAttributeList",
                        "keyframes" : [
                          {
                            "time" : 0,
                            "value" : null,
                            "duration" : 0
                          }
                        ]
                      }
                    },
                    "attributes" : {
                      "autoRotateText" : true
                    },
                    "parameters" : {
                      "translation0" : -500.000000000062,
                      "translation1" : 246.000000000103
                    },
                    "effects" : [
                        {
                          "effectName" : "DropShadow",
                          "parameters" : {
                            "angle" : 5.49778714378214,
                            "blur" : 10.0,
                            "color-alpha" : 1.0,
                            "color-blue" : 0.1216,
                            "color-green" : 0.1216,
                            "color-red" : 0.1216,
                            "enabled" : 1,
                            "offset" : 10.0,
                            "opacity" : 0.4
                          }
                        }
                    ],
                    "start" : 271,
                    "duration" : 220,
                    "mediaStart" : 75,
                    "mediaDuration" : 220,
                    "scalar" : 1,
                    "metadata" : {
                      "WinSubProjectDisplayName" : "",
                      "clipSpeedAttribute" : false,
                      "default-translation0" : 0.0,
                      "default-translation1" : 0.0
                    },
                    "animationTracks" : {

                    }
                  }
                ]
              },
              {
                "trackIndex" : 11,
                "medias" : [
                  {
                    "id" : 82,
                    "_type" : "Callout",
                    "def" : {
                      "kind" : "remix",
                      "shape" : "arrow",
                      "style" : "basic",
                      "stroke-color-blue" : 0.56078431372549,
                      "stroke-color-green" : 0.686274509803922,
                      "stroke-color-opacity" : 1.0,
                      "stroke-color-red" : 0.0196078431372549,
                      "stroke-width" : 8.0,
                      "tail-x" : {
                        "type" : "double",
                        "defaultValue" : -177.999999999974,
                        "interp" : "eioe"
                      },
                      "tail-y" : {
                        "type" : "double",
                        "defaultValue" : 27.0000000000308,
                        "interp" : "eioe"
                      },
                      "horizontal-alignment" : "center",
                      "shape-anchor" : "none",
                      "shape-tail" : "arrow",
                      "stroke-style" : "solid",
                      "vertical-alignment" : "center",
                      "textAttributes" : {
                        "type" : "textAttributeList",
                        "keyframes" : [
                          {
                            "time" : 0,
                            "value" : null,
                            "duration" : 0
                          }
                        ]
                      }
                    },
                    "attributes" : {
                      "autoRotateText" : true
                    },
                    "parameters" : {
                      "translation0" : -417.99999999998,
                      "translation1" : 115.000000000007
                    },
                    "effects" : [
                        {
                          "effectName" : "DropShadow",
                          "parameters" : {
                            "angle" : 5.49778714378214,
                            "blur" : 10.0,
                            "color-alpha" : 1.0,
                            "color-blue" : 0.1216,
                            "color-green" : 0.1216,
                            "color-red" : 0.1216,
                            "enabled" : 1,
                            "offset" : 10.0,
                            "opacity" : 0.4
                          }
                        }
                    ],
                    "start" : 196,
                    "duration" : 295,
                    "mediaStart" : 0,
                    "mediaDuration" : 295,
                    "scalar" : 1,
                    "metadata" : {
                      "WinSubProjectDisplayName" : "",
                      "clipSpeedAttribute" : false,
                      "default-translation0" : 0.0,
                      "default-translation1" : 0.0
                    },
                    "animationTracks" : {

                    }
                  }
                ]
              },
              {
                "trackIndex" : 12,
                "medias" : [
                ]
              }
            ]
          }
        }
      ]
    },
    "trackAttributes" : [
      {
        "ident" : "Main screen",
        "audioMuted" : false,
        "videoHidden" : false,
        "metadata" : {
          "IsLocked" : "False",
          "WinTrackHeight" : "56"
        }
      },
      {
        "ident" : "DOI",
        "audioMuted" : false,
        "videoHidden" : false,
        "metadata" : {
          "IsLocked" : "False",
          "WinTrackHeight" : "56"
        }
      },
      {
        "ident" : "Page",
        "audioMuted" : false,
        "videoHidden" : false,
        "metadata" : {
          "IsLocked" : "False",
          "WinTrackHeight" : "56"
        }
      },
      {
        "ident" : "Author - Topic - Year",
        "audioMuted" : false,
        "videoHidden" : false,
        "metadata" : {
          "IsLocked" : "False",
          "WinTrackHeight" : "56"
        }
      },
      {
        "ident" : "",
        "audioMuted" : false,
        "videoHidden" : false,
        "metadata" : {
          "IsLocked" : "False",
          "WinTrackHeight" : "56"
        }
      },
      {
        "ident" : "Steps",
        "audioMuted" : false,
        "videoHidden" : false,
        "metadata" : {
          "IsLocked" : "False",
          "WinTrackHeight" : "56"
        }
      },
      {
        "ident" : "",
        "audioMuted" : false,
        "videoHidden" : false,
        "metadata" : {
          "IsLocked" : "False",
          "WinTrackHeight" : "56"
        }
      },
      {
        "ident" : "",
        "audioMuted" : false,
        "videoHidden" : false,
        "metadata" : {
          "IsLocked" : "False",
          "WinTrackHeight" : "56"
        }
      },
      {
        "ident" : "",
        "audioMuted" : false,
        "videoHidden" : false,
        "metadata" : {
          "IsLocked" : "False",
          "WinTrackHeight" : "56"
        }
      },
      {
        "ident" : "",
        "audioMuted" : false,
        "videoHidden" : false,
        "metadata" : {
          "IsLocked" : "False",
          "WinTrackHeight" : "56"
        }
      },
      {
        "ident" : "",
        "audioMuted" : false,
        "videoHidden" : false,
        "metadata" : {
          "IsLocked" : "False",
          "WinTrackHeight" : "56"
        }
      },
      {
        "ident" : "",
        "audioMuted" : false,
        "videoHidden" : false,
        "metadata" : {
          "IsLocked" : "False",
          "WinTrackHeight" : "56"
        }
      },
      {
        "ident" : "",
        "audioMuted" : false,
        "videoHidden" : false,
        "metadata" : {
          "IsLocked" : "False",
          "WinTrackHeight" : "56"
        }
      }
    ],
    "captionAttributes" : {
      "enabled" : true,
      "fontName" : "Arial",
      "fontSize" : 61,
      "backgroundColor" : [ 0, 0, 0, 191],
      "foregroundColor" : [ 255, 255, 255, 255],
      "lang" : "en",
      "alignment" : 0,
      "defaultFontSize" : true,
      "opacity" : 0.5,
      "backgroundEnabled" : true,
      "backgroundOnlyAroundText" : true
    },
    "backgroundColor" : [ 0, 0, 0, 255]
  },
  "metadata" : {
    "AutoSaveFile" : "C:\\Users\\Clokman\\AppData\\Local\\TechSmith\\Camtasia Studio\\9.0\\Auto-Saves\\kad2ca3d46a.autosave.tscproj",
    "CanvasZoom" : 35,
    "Date" : "2017-10-28 07:27:53 AM",
    "Fit" : 0,
    "IsAutoSave" : "0",
    "Language" : "ENU",
    "ProfileName" : "MP4 with Smart Player (up to 1080p)",
    "ProjectDimensionsChanged" : "1",
    "Title" : "kad",
    "audioNarrationNotes" : "",
    "calloutStyle" : "Basic",
    "canvasDetached" : "False",
    "canvasPositionHeight" : "600",
    "canvasPositionLeft" : "440",
    "canvasPositionTop" : "205",
    "canvasPositionWidth" : "800"
  }
}
